<svg width="78" height="14" viewBox="0 0 78 14" fill="none" xmlns="http://www.w3.org/2000/svg">
<g clip-path="url(#clip0_159_13098)">
<path d="M13.8105 5.31127C13.7199 5.03089 13.4712 4.83175 13.177 4.80523L9.18046 4.44234L7.60013 0.743432C7.48361 0.47235 7.21823 0.296875 6.92338 0.296875C6.62852 0.296875 6.36315 0.47235 6.24662 0.744066L4.66629 4.44234L0.669147 4.80523C0.375457 4.83238 0.127405 5.03089 0.0362341 5.31127C-0.0549366 5.59164 0.0292616 5.89917 0.251431 6.09303L3.27232 8.74237L2.38153 12.6663C2.31635 12.9548 2.42833 13.253 2.66772 13.4261C2.79639 13.5191 2.94694 13.5664 3.09875 13.5664C3.22964 13.5664 3.35948 13.5311 3.476 13.4614L6.92338 11.401L10.3695 13.4614C10.6217 13.6131 10.9395 13.5992 11.1784 13.4261C11.4179 13.2525 11.5298 12.9542 11.4646 12.6663L10.5738 8.74237L13.5947 6.09356C13.8169 5.89917 13.9017 5.59217 13.8105 5.31127Z" fill="#FFBD27"/>
</g>
<g clip-path="url(#clip1_159_13098)">
<path d="M29.8437 5.31127C29.7531 5.03089 29.5044 4.83175 29.2102 4.80523L25.2137 4.44234L23.6333 0.743432C23.5168 0.47235 23.2514 0.296875 22.9566 0.296875C22.6617 0.296875 22.3963 0.47235 22.2798 0.744066L20.6995 4.44234L16.7024 4.80523C16.4087 4.83238 16.1606 5.03089 16.0694 5.31127C15.9783 5.59164 16.0625 5.89917 16.2846 6.09303L19.3055 8.74237L18.4147 12.6663C18.3496 12.9548 18.4615 13.253 18.7009 13.4261C18.8296 13.5191 18.9801 13.5664 19.132 13.5664C19.2628 13.5664 19.3927 13.5311 19.5092 13.4614L22.9566 11.401L26.4027 13.4614C26.6549 13.6131 26.9727 13.5992 27.2116 13.4261C27.4511 13.2525 27.563 12.9542 27.4978 12.6663L26.607 8.74237L29.6279 6.09356C29.8501 5.89917 29.9349 5.59217 29.8437 5.31127Z" fill="#FFBD27"/>
</g>
<g clip-path="url(#clip2_159_13098)">
<path d="M45.8769 5.31127C45.7863 5.03089 45.5376 4.83175 45.2434 4.80523L41.2469 4.44234L39.6665 0.743432C39.55 0.47235 39.2846 0.296875 38.9898 0.296875C38.6949 0.296875 38.4296 0.47235 38.313 0.744066L36.7327 4.44234L32.7356 4.80523C32.4419 4.83238 32.1938 5.03089 32.1026 5.31127C32.0115 5.59164 32.0957 5.89917 32.3178 6.09303L35.3387 8.74237L34.4479 12.6663C34.3828 12.9548 34.4947 13.253 34.7341 13.4261C34.8628 13.5191 35.0133 13.5664 35.1652 13.5664C35.296 13.5664 35.4259 13.5311 35.5424 13.4614L38.9898 11.401L42.4359 13.4614C42.6881 13.6131 43.0059 13.5992 43.2448 13.4261C43.4843 13.2525 43.5962 12.9542 43.531 12.6663L42.6402 8.74237L45.6611 6.09356C45.8833 5.89917 45.9681 5.59217 45.8769 5.31127Z" fill="#FFBD27"/>
</g>
<g clip-path="url(#clip3_159_13098)">
<path d="M61.9082 5.31127C61.8175 5.03089 61.5688 4.83175 61.2746 4.80523L57.2781 4.44234L55.6978 0.743432C55.5813 0.47235 55.3159 0.296875 55.021 0.296875C54.7262 0.296875 54.4608 0.47235 54.3443 0.744066L52.7639 4.44234L48.7668 4.80523C48.4731 4.83238 48.2251 5.03089 48.1339 5.31127C48.0427 5.59164 48.1269 5.89917 48.3491 6.09303L51.37 8.74237L50.4792 12.6663C50.414 12.9548 50.526 13.253 50.7654 13.4261C50.8941 13.5191 51.0446 13.5664 51.1964 13.5664C51.3273 13.5664 51.4571 13.5311 51.5737 13.4614L55.021 11.401L58.4671 13.4614C58.7193 13.6131 59.0372 13.5992 59.2761 13.4261C59.5156 13.2525 59.6274 12.9542 59.5622 12.6663L58.6715 8.74237L61.6923 6.09356C61.9145 5.89917 61.9993 5.59217 61.9082 5.31127Z" fill="#FFBD27"/>
</g>
<g clip-path="url(#clip4_159_13098)">
<path d="M77.9414 5.31127C77.8507 5.03089 77.602 4.83175 77.3078 4.80523L73.3113 4.44234L71.731 0.743432C71.6145 0.47235 71.3491 0.296875 71.0542 0.296875C70.7594 0.296875 70.494 0.47235 70.3775 0.744066L68.7972 4.44234L64.8 4.80523C64.5063 4.83238 64.2583 5.03089 64.1671 5.31127C64.0759 5.59164 64.1601 5.89917 64.3823 6.09303L67.4032 8.74237L66.5124 12.6663C66.4472 12.9548 66.5592 13.253 66.7986 13.4261C66.9273 13.5191 67.0778 13.5664 67.2296 13.5664C67.3605 13.5664 67.4903 13.5311 67.6069 13.4614L71.0542 11.401L74.5003 13.4614C74.7525 13.6131 75.0704 13.5992 75.3093 13.4261C75.5488 13.2525 75.6606 12.9542 75.5954 12.6663L74.7047 8.74237L77.7255 6.09356C77.9477 5.89917 78.0325 5.59217 77.9414 5.31127Z" fill="#FFBD27"/>
</g>
<defs>
<clipPath id="clip0_159_13098">
<rect width="13.8466" height="13.8466" fill="white"/>
</clipPath>
<clipPath id="clip1_159_13098">
<rect width="13.8466" height="13.8466" fill="white" transform="translate(16.0332)"/>
</clipPath>
<clipPath id="clip2_159_13098">
<rect width="13.8466" height="13.8466" fill="white" transform="translate(32.0664)"/>
</clipPath>
<clipPath id="clip3_159_13098">
<rect width="13.8466" height="13.8466" fill="white" transform="translate(48.0977)"/>
</clipPath>
<clipPath id="clip4_159_13098">
<rect width="13.8466" height="13.8466" fill="white" transform="translate(64.1309)"/>
</clipPath>
</defs>
</svg>
