<svg width="20" height="21" viewBox="0 0 20 21" fill="none" xmlns="http://www.w3.org/2000/svg">
<path d="M9 14.4766C8.86739 14.4766 8.74021 14.5292 8.64645 14.623C8.55268 14.7168 8.5 14.844 8.5 14.9766C8.5 15.1092 8.55268 15.2363 8.64645 15.3301C8.74021 15.4239 8.86739 15.4766 9 15.4766H11C11.1326 15.4766 11.2598 15.4239 11.3536 15.3301C11.4473 15.2363 11.5 15.1092 11.5 14.9766C11.5 14.844 11.4473 14.7168 11.3536 14.623C11.2598 14.5292 11.1326 14.4766 11 14.4766H9ZM7 2.47656C6.46957 2.47656 5.96086 2.68728 5.58579 3.06235C5.21071 3.43742 5 3.94613 5 4.47656V16.4766C5 17.007 5.21071 17.5157 5.58579 17.8908C5.96086 18.2658 6.46957 18.4766 7 18.4766H13C13.5304 18.4766 14.0391 18.2658 14.4142 17.8908C14.7893 17.5157 15 17.007 15 16.4766V4.47656C15 3.94613 14.7893 3.43742 14.4142 3.06235C14.0391 2.68728 13.5304 2.47656 13 2.47656H7ZM6 4.47656C6 4.21135 6.10536 3.95699 6.29289 3.76946C6.48043 3.58192 6.73478 3.47656 7 3.47656H13C13.2652 3.47656 13.5196 3.58192 13.7071 3.76946C13.8946 3.95699 14 4.21135 14 4.47656V16.4766C14 16.7418 13.8946 16.9961 13.7071 17.1837C13.5196 17.3712 13.2652 17.4766 13 17.4766H7C6.73478 17.4766 6.48043 17.3712 6.29289 17.1837C6.10536 16.9961 6 16.7418 6 16.4766V4.47656Z" fill="black"/>
</svg>
