<svg width="24" height="24" viewBox="0 0 24 24" fill="none" xmlns="http://www.w3.org/2000/svg">
<path d="M7 18H7.79167C7.79167 17.5628 7.43723 17.2083 7 17.2083V18ZM3.10222 15.7765L3.86691 15.5716L3.10222 15.7765ZM5.22354 17.8978L5.42844 17.1331L5.22354 17.8978ZM12.4492 18.0613L12.2901 17.2857L12.4492 18.0613ZM10.6852 19.0518L10.1907 18.4336L10.6852 19.0518ZM11.6875 18.3285L11.3273 17.6235L11.6875 18.3285ZM7.50054 21.4597L7.50139 22.2514L7.50054 21.4597ZM7.10923 21.2716L7.72795 20.7777L7.10923 21.2716ZM20.673 16.362L21.3784 16.7214L20.673 16.362ZM19.362 17.673L19.7214 18.3784L19.362 17.673ZM19.362 3.32698L19.7214 2.6216L19.362 3.32698ZM20.673 4.63803L21.3784 4.27862L20.673 4.63803ZM4.63803 3.32698L4.27862 2.6216L4.63803 3.32698ZM3.32698 4.63803L2.6216 4.27862L3.32698 4.63803ZM7 7.70833C6.56277 7.70833 6.20833 8.06277 6.20833 8.5C6.20833 8.93723 6.56277 9.29167 7 9.29167V7.70833ZM12 9.29167C12.4372 9.29167 12.7917 8.93723 12.7917 8.5C12.7917 8.06277 12.4372 7.70833 12 7.70833V9.29167ZM7 11.2083C6.56277 11.2083 6.20833 11.5628 6.20833 12C6.20833 12.4372 6.56277 12.7917 7 12.7917V11.2083ZM15 12.7917C15.4372 12.7917 15.7917 12.4372 15.7917 12C15.7917 11.5628 15.4372 11.2083 15 11.2083V12.7917ZM7.8 3.79167H16.2V2.20833H7.8V3.79167ZM20.2083 7.8V13.2H21.7917V7.8H20.2083ZM16.2 17.2083H13.6837V18.7917H16.2V17.2083ZM10.1907 18.4336L7.80521 20.342L8.79431 21.5784L11.1798 19.67L10.1907 18.4336ZM3.79167 14V7.8H2.20833V14H3.79167ZM7.79167 20.3355V18H6.20833V20.3355H7.79167ZM2.20833 14C2.20833 14.879 2.20153 15.4738 2.33753 15.9814L3.86691 15.5716C3.79847 15.3161 3.79167 14.9809 3.79167 14H2.20833ZM7 17.2083C6.01906 17.2083 5.68389 17.2015 5.42844 17.1331L5.01864 18.6625C5.52619 18.7985 6.121 18.7917 7 18.7917V17.2083ZM2.33753 15.9814C2.68814 17.2898 3.71017 18.3119 5.01864 18.6625L5.42844 17.1331C4.66636 16.9289 4.07111 16.3336 3.86691 15.5716L2.33753 15.9814ZM13.6837 17.2083C13.0914 17.2083 12.6855 17.2046 12.2901 17.2857L12.6084 18.8368C12.8099 18.7954 13.028 18.7917 13.6837 18.7917V17.2083ZM11.1798 19.67C11.6918 19.2604 11.8645 19.127 12.0477 19.0334L11.3273 17.6235C10.9679 17.8071 10.6532 18.0636 10.1907 18.4336L11.1798 19.67ZM12.2901 17.2857C11.9554 17.3544 11.6316 17.468 11.3273 17.6235L12.0477 19.0334C12.2248 18.9429 12.4135 18.8768 12.6084 18.8368L12.2901 17.2857ZM7.80521 20.342C7.58484 20.5183 7.46189 20.6157 7.37317 20.6743C7.33277 20.701 7.32477 20.7023 7.33954 20.6963C7.35772 20.6888 7.41519 20.6681 7.49968 20.668L7.50139 22.2514C7.83391 22.251 8.09551 22.0948 8.24638 21.9951C8.40947 21.8873 8.59859 21.735 8.79431 21.5784L7.80521 20.342ZM6.20833 20.3355C6.20833 20.5861 6.20755 20.829 6.22523 21.0237C6.24159 21.2038 6.28307 21.5056 6.49051 21.7655L7.72795 20.7777C7.78066 20.8438 7.80043 20.9016 7.80595 20.9204C7.81043 20.9357 7.80646 20.9287 7.80207 20.8804C7.79245 20.7745 7.79167 20.6177 7.79167 20.3355H6.20833ZM7.49968 20.668C7.58851 20.6679 7.67254 20.7083 7.72795 20.7777L6.49051 21.7655C6.73591 22.0729 7.10803 22.2518 7.50139 22.2514L7.49968 20.668ZM20.2083 13.2C20.2083 14.0531 20.2077 14.6454 20.1701 15.1059C20.1332 15.5572 20.0648 15.8119 19.9676 16.0026L21.3784 16.7214C21.6082 16.2703 21.7033 15.7841 21.7482 15.2349C21.7923 14.6949 21.7917 14.027 21.7917 13.2H20.2083ZM16.2 18.7917C17.027 18.7917 17.6949 18.7923 18.2349 18.7482C18.7841 18.7033 19.2703 18.6082 19.7214 18.3784L19.0026 16.9676C18.8119 17.0648 18.5572 17.1332 18.1059 17.1701C17.6454 17.2077 17.0531 17.2083 16.2 17.2083V18.7917ZM19.9676 16.0026C19.7559 16.4181 19.4181 16.7559 19.0026 16.9676L19.7214 18.3784C20.4348 18.0149 21.0149 17.4348 21.3784 16.7214L19.9676 16.0026ZM16.2 3.79167C17.0531 3.79167 17.6454 3.79228 18.1059 3.82991C18.5572 3.86678 18.8119 3.93521 19.0026 4.03236L19.7214 2.6216C19.2703 2.39177 18.7841 2.29671 18.2349 2.25184C17.6949 2.20772 17.027 2.20833 16.2 2.20833V3.79167ZM21.7917 7.8C21.7917 6.97298 21.7923 6.30511 21.7482 5.76514C21.7033 5.21593 21.6082 4.72969 21.3784 4.27862L19.9676 4.99744C20.0648 5.1881 20.1332 5.44277 20.1701 5.89407C20.2077 6.35461 20.2083 6.94686 20.2083 7.8H21.7917ZM19.0026 4.03236C19.4181 4.24408 19.7559 4.58191 19.9676 4.99744L21.3784 4.27862C21.0149 3.56517 20.4348 2.98512 19.7214 2.6216L19.0026 4.03236ZM7.8 2.20833C6.97298 2.20833 6.30511 2.20772 5.76514 2.25184C5.21593 2.29671 4.72969 2.39177 4.27862 2.6216L4.99744 4.03236C5.1881 3.93521 5.44277 3.86678 5.89407 3.82991C6.35461 3.79228 6.94686 3.79167 7.8 3.79167V2.20833ZM3.79167 7.8C3.79167 6.94686 3.79228 6.35461 3.82991 5.89407C3.86678 5.44277 3.93521 5.1881 4.03236 4.99744L2.6216 4.27862C2.39177 4.72969 2.29671 5.21593 2.25184 5.76514C2.20772 6.30511 2.20833 6.97298 2.20833 7.8H3.79167ZM4.27862 2.6216C3.56517 2.98512 2.98512 3.56517 2.6216 4.27862L4.03236 4.99744C4.24408 4.58191 4.58191 4.24408 4.99744 4.03236L4.27862 2.6216ZM7 9.29167H12V7.70833H7V9.29167ZM7 12.7917H15V11.2083H7V12.7917Z" fill="white"/>
</svg>
