<svg width="19" height="19" viewBox="0 0 19 19" fill="none" xmlns="http://www.w3.org/2000/svg">
<path d="M5.54167 14.25H6.33333C6.33333 13.8128 5.97889 13.4583 5.54167 13.4583V14.25ZM2.45593 12.4897L3.22062 12.2848L2.45593 12.4897ZM4.1353 14.1691L4.3402 13.4044L4.1353 14.1691ZM9.85563 14.2985L9.69647 13.523L9.85563 14.2985ZM9.25259 14.51L8.89242 13.805L9.25259 14.51ZM5.93793 16.9889L5.93878 17.7806L5.93793 16.9889ZM5.62814 16.84L6.24686 16.3461L5.62814 16.84ZM16.3661 12.9532L17.0715 13.3126L16.3661 12.9532ZM15.3282 13.9911L15.6876 14.6965L15.3282 13.9911ZM15.3282 2.63386L15.6876 1.92848L15.3282 2.63386ZM16.3661 3.67177L17.0715 3.31236L16.3661 3.67177ZM3.67177 2.63386L3.31236 1.92848L3.67177 2.63386ZM2.63386 3.67177L1.92848 3.31236L2.63386 3.67177ZM5.54167 5.9375C5.10444 5.9375 4.75 6.29194 4.75 6.72917C4.75 7.16639 5.10444 7.52083 5.54167 7.52083V5.9375ZM9.5 7.52083C9.93723 7.52083 10.2917 7.16639 10.2917 6.72917C10.2917 6.29194 9.93723 5.9375 9.5 5.9375V7.52083ZM5.54167 8.70833C5.10444 8.70833 4.75 9.06277 4.75 9.5C4.75 9.93723 5.10444 10.2917 5.54167 10.2917V8.70833ZM11.875 10.2917C12.3122 10.2917 12.6667 9.93723 12.6667 9.5C12.6667 9.06277 12.3122 8.70833 11.875 8.70833V10.2917ZM6.175 3.16667H12.825V1.58333H6.175V3.16667ZM15.8333 6.175V10.45H17.4167V6.175H15.8333ZM12.825 13.4583H10.833V15.0417H12.825V13.4583ZM7.96458 14.4645L6.07609 15.9753L7.06519 17.2117L8.95368 15.7009L7.96458 14.4645ZM3.16667 11.0833V6.175H1.58333V11.0833H3.16667ZM6.33333 16.0989V14.25H4.75V16.0989H6.33333ZM1.58333 11.0833C1.58333 11.7686 1.57653 12.2665 1.69123 12.6946L3.22062 12.2848C3.17347 12.1088 3.16667 11.8705 3.16667 11.0833H1.58333ZM5.54167 13.4583C4.75447 13.4583 4.51617 13.4515 4.3402 13.4044L3.93041 14.9338C4.35848 15.0485 4.85641 15.0417 5.54167 15.0417V13.4583ZM1.69123 12.6946C1.98405 13.7874 2.83761 14.641 3.93041 14.9338L4.3402 13.4044C3.79381 13.258 3.36702 12.8312 3.22062 12.2848L1.69123 12.6946ZM10.833 13.4583C10.3706 13.4583 10.0297 13.4546 9.69647 13.523L10.0148 15.074C10.1541 15.0454 10.3072 15.0417 10.833 15.0417V13.4583ZM8.95368 15.7009C9.36422 15.3724 9.48611 15.2797 9.61276 15.215L8.89242 13.805C8.58949 13.9598 8.32559 14.1757 7.96458 14.4645L8.95368 15.7009ZM9.69647 13.523C9.41697 13.5804 9.14651 13.6752 8.89242 13.805L9.61276 15.215C9.73981 15.1501 9.87504 15.1027 10.0148 15.074L9.69647 13.523ZM6.07609 15.9753C5.9922 16.0424 5.92577 16.0955 5.86816 16.1401C5.81009 16.1849 5.77204 16.2124 5.74614 16.2296C5.71885 16.2476 5.7224 16.2424 5.74771 16.232C5.77644 16.2202 5.84345 16.1974 5.93707 16.1973L5.93878 17.7806C6.25306 17.7802 6.49471 17.6328 6.61934 17.5504C6.7562 17.4599 6.91282 17.3336 7.06519 17.2117L6.07609 15.9753ZM4.75 16.0989C4.75 16.2941 4.74921 16.4953 4.76405 16.6587C4.77757 16.8075 4.81335 17.0883 5.00942 17.3339L6.24686 16.3461C6.30526 16.4193 6.3293 16.4859 6.33801 16.5157C6.34569 16.542 6.34386 16.548 6.3409 16.5154C6.33809 16.4845 6.3358 16.4376 6.33457 16.3642C6.33336 16.2914 6.33333 16.2064 6.33333 16.0989H4.75ZM5.93707 16.1973C6.05762 16.1971 6.17166 16.2519 6.24686 16.3461L5.00942 17.3339C5.23503 17.6165 5.57714 17.781 5.93878 17.7806L5.93707 16.1973ZM15.8333 10.45C15.8333 11.1281 15.8327 11.5891 15.8036 11.9454C15.7752 12.2925 15.7238 12.47 15.6608 12.5938L17.0715 13.3126C17.2673 12.9284 17.3453 12.5194 17.3817 12.0744C17.4173 11.6386 17.4167 11.102 17.4167 10.45H15.8333ZM12.825 15.0417C13.477 15.0417 14.0136 15.0423 14.4494 15.0067C14.8944 14.9703 15.3034 14.8923 15.6876 14.6965L14.9688 13.2858C14.845 13.3488 14.6675 13.4002 14.3204 13.4286C13.9641 13.4577 13.5031 13.4583 12.825 13.4583V15.0417ZM15.6608 12.5938C15.509 12.8917 15.2667 13.134 14.9688 13.2858L15.6876 14.6965C16.2835 14.3929 16.7679 13.9085 17.0715 13.3126L15.6608 12.5938ZM12.825 3.16667C13.5031 3.16667 13.9641 3.16728 14.3204 3.19639C14.6675 3.22475 14.845 3.27615 14.9688 3.33924L15.6876 1.92848C15.3034 1.73271 14.8944 1.65468 14.4494 1.61832C14.0136 1.58272 13.477 1.58333 12.825 1.58333V3.16667ZM17.4167 6.175C17.4167 5.523 17.4173 4.98639 17.3817 4.55064C17.3453 4.10564 17.2673 3.69659 17.0715 3.31236L15.6608 4.03118C15.7238 4.155 15.7752 4.33249 15.8036 4.67957C15.8327 5.03589 15.8333 5.49687 15.8333 6.175H17.4167ZM14.9688 3.33924C15.2667 3.49104 15.509 3.73326 15.6608 4.03118L17.0715 3.31236C16.7679 2.71652 16.2835 2.23208 15.6876 1.92848L14.9688 3.33924ZM6.175 1.58333C5.523 1.58333 4.98639 1.58272 4.55064 1.61832C4.10564 1.65468 3.69659 1.73271 3.31236 1.92848L4.03118 3.33924C4.155 3.27615 4.33249 3.22475 4.67957 3.19639C5.03589 3.16728 5.49687 3.16667 6.175 3.16667V1.58333ZM3.16667 6.175C3.16667 5.49687 3.16728 5.03589 3.19639 4.67957C3.22475 4.33249 3.27615 4.155 3.33924 4.03118L1.92848 3.31236C1.73271 3.69659 1.65468 4.10564 1.61832 4.55064C1.58272 4.98639 1.58333 5.523 1.58333 6.175H3.16667ZM3.31236 1.92848C2.71652 2.23208 2.23208 2.71652 1.92848 3.31236L3.33924 4.03118C3.49104 3.73326 3.73326 3.49104 4.03118 3.33924L3.31236 1.92848ZM5.54167 7.52083H9.5V5.9375H5.54167V7.52083ZM5.54167 10.2917H11.875V8.70833H5.54167V10.2917Z" fill="#0180FE"/>
</svg>
