<svg width="17" height="17" viewBox="0 0 17 17" fill="none" xmlns="http://www.w3.org/2000/svg">
<path d="M5.22802 6.97872L4.58947 7.2853L4.58947 7.2853L5.22802 6.97872ZM10.0845 11.8352L10.3911 11.1966L10.3911 11.1966L10.0845 11.8352ZM1.53828 6.20528L2.2197 6.01187V6.01187L1.53828 6.20528ZM10.8579 15.5249L11.0513 14.8435L10.8579 15.5249ZM2.34547 3.44823L2.84634 3.9491L2.84634 3.9491L2.34547 3.44823ZM2.45713 3.33657L1.95626 2.83571L1.95626 2.83571L2.45713 3.33657ZM13.7266 11.7937L13.2258 12.2945L13.2258 12.2945L13.7266 11.7937ZM13.5886 11.6556L14.0895 11.1548L14.0895 11.1548L13.5886 11.6556ZM13.0926 11.2032L13.4788 10.6094H13.4788L13.0926 11.2032ZM11.5482 11.2032L11.9343 11.7971H11.9343L11.5482 11.2032ZM14.3935 13.8393L13.7615 13.5196L14.3935 13.8393ZM14.3935 12.5605L13.7615 12.8802V12.8802L14.3935 12.5605ZM5.85999 3.97057L6.45384 3.58447L6.45384 3.58446L5.85999 3.97057ZM5.85999 5.51499L5.26614 5.12889L5.26614 5.12889L5.85999 5.51499ZM3.22393 2.66967L2.90423 2.03759L2.90423 2.03759L3.22393 2.66967ZM4.50275 2.66967L4.18305 3.30175L4.50275 2.66967ZM11.7502 15.696L11.7523 14.9877L11.7502 15.696ZM12.7972 15.4237L12.4503 14.8062L12.7972 15.4237ZM1.36719 5.31305L2.07552 5.31094V5.31094L1.36719 5.31305ZM1.63949 4.26598L1.02193 3.91906L1.02193 3.91906L1.63949 4.26598ZM10.2729 11.9151L10.4711 11.2351L10.4711 11.2351L10.2729 11.9151ZM10.8835 11.811L11.2959 12.3869L11.2959 12.3869L10.8835 11.811ZM5.14812 6.79036L4.46809 6.98859L4.46809 6.98859L5.14812 6.79036ZM5.25224 6.17974L4.67633 5.76736L4.67633 5.76736L5.25224 6.17974ZM10.0878 3.55412C9.70385 3.47921 9.33186 3.72975 9.25694 4.11371C9.18203 4.49767 9.43256 4.86966 9.81653 4.94457L10.0878 3.55412ZM11.7783 5.22114L11.2774 5.722L11.7783 5.22114ZM12.0549 7.18291C12.1298 7.56687 12.5018 7.8174 12.8857 7.74249C13.2697 7.66758 13.5202 7.29559 13.4453 6.91162L12.0549 7.18291ZM10.0304 0.712013C9.64157 0.66882 9.29136 0.948997 9.24817 1.33781C9.20497 1.72662 9.48515 2.07682 9.87396 2.12002L10.0304 0.712013ZM13.7533 3.2414L13.2527 3.74258L13.7533 3.2414ZM14.8795 7.11928C14.9232 7.50803 15.2738 7.78777 15.6625 7.74409C16.0513 7.7004 16.331 7.34984 16.2873 6.96109L14.8795 7.11928ZM7.74506 9.31815C6.95125 8.52434 6.32544 7.62788 5.86657 6.67214L4.58947 7.2853C5.1166 8.38319 5.83491 9.41147 6.74333 10.3199L7.74506 9.31815ZM10.3911 11.1966C9.43534 10.7378 8.53888 10.112 7.74506 9.31815L6.74333 10.3199C7.65175 11.2283 8.68003 11.9466 9.77792 12.4737L10.3911 11.1966ZM5.49116 11.5721C3.88726 9.96816 2.79742 8.04732 2.2197 6.01187L0.856867 6.39868C1.49885 8.66055 2.71035 10.7947 4.48943 12.5738L5.49116 11.5721ZM11.0513 14.8435C9.0159 14.2658 7.09506 13.176 5.49116 11.5721L4.48943 12.5738C6.2685 14.3529 8.40267 15.5644 10.6645 16.2064L11.0513 14.8435ZM2.84634 3.9491L2.958 3.83744L1.95626 2.83571L1.84461 2.94736L2.84634 3.9491ZM4.76868 3.83744L4.90672 3.97547L5.90845 2.97374L5.77042 2.83571L4.76868 3.83744ZM14.1159 15.2186L14.2275 15.107L13.2258 14.1052L13.1141 14.2169L14.1159 15.2186ZM14.2275 11.2928L14.0895 11.1548L13.0877 12.1565L13.2258 12.2945L14.2275 11.2928ZM14.0895 11.1548C13.8674 10.9327 13.6812 10.741 13.4788 10.6094L12.7065 11.7971C12.7531 11.8273 12.8145 11.8833 13.0877 12.1565L14.0895 11.1548ZM11.5531 12.1565C11.8263 11.8833 11.8878 11.8273 11.9343 11.7971L11.1621 10.6094C10.9597 10.741 10.7735 10.9327 10.5514 11.1548L11.5531 12.1565ZM13.4788 10.6094C12.7744 10.1514 11.8664 10.1514 11.1621 10.6094L11.9343 11.7971C12.1691 11.6444 12.4718 11.6444 12.7065 11.7971L13.4788 10.6094ZM14.2275 15.107C14.5646 14.7699 14.8594 14.4877 15.0256 14.159L13.7615 13.5196C13.7232 13.5952 13.6416 13.6894 13.2258 14.1052L14.2275 15.107ZM13.2258 12.2945C13.6416 12.7103 13.7232 12.8046 13.7615 12.8802L15.0256 12.2408C14.8594 11.9121 14.5646 11.6299 14.2275 11.2928L13.2258 12.2945ZM15.0256 14.159C15.3306 13.556 15.3306 12.8438 15.0256 12.2408L13.7615 12.8802C13.8631 13.0812 13.8631 13.3186 13.7615 13.5196L15.0256 14.159ZM4.90672 3.97547C5.17993 4.24868 5.23587 4.31012 5.26614 4.35668L6.45384 3.58446C6.32221 3.38201 6.13052 3.1958 5.90845 2.97374L4.90672 3.97547ZM5.90845 6.51183C6.13052 6.28976 6.32221 6.10356 6.45385 5.9011L5.26614 5.12889C5.23587 5.17545 5.17993 5.23688 4.90672 5.51009L5.90845 6.51183ZM5.26614 4.35668C5.41879 4.59145 5.41879 4.89411 5.26614 5.12889L6.45384 5.9011C6.91178 5.19678 6.91178 4.28879 6.45384 3.58447L5.26614 4.35668ZM2.958 3.83744C3.37381 3.42163 3.46804 3.33999 3.54364 3.30175L2.90423 2.03759C2.57553 2.20384 2.29333 2.49864 1.95626 2.83571L2.958 3.83744ZM5.77042 2.83571C5.43335 2.49864 5.15115 2.20384 4.82245 2.03759L4.18305 3.30175C4.25864 3.33999 4.35288 3.42163 4.76868 3.83744L5.77042 2.83571ZM3.54364 3.30175C3.74465 3.20008 3.98204 3.20008 4.18305 3.30175L4.82245 2.03759C4.21942 1.73258 3.50726 1.73258 2.90423 2.03759L3.54364 3.30175ZM10.6645 16.2064C11.0517 16.3163 11.3431 16.4031 11.7481 16.4044L11.7523 14.9877C11.5722 14.9872 11.4638 14.9606 11.0513 14.8435L10.6645 16.2064ZM13.1141 14.2169C12.7173 14.6137 12.6025 14.7207 12.4503 14.8062L13.1442 16.0413C13.502 15.8403 13.7624 15.5721 14.1159 15.2186L13.1141 14.2169ZM11.7481 16.4044C12.1949 16.4057 12.7546 16.2601 13.1442 16.0413L12.4503 14.8062C12.2739 14.9053 11.9546 14.9883 11.7523 14.9877L11.7481 16.4044ZM2.2197 6.01187C2.10264 5.59944 2.07606 5.49101 2.07552 5.31094L0.658863 5.31516C0.660068 5.7201 0.746966 6.01148 0.856867 6.39869L2.2197 6.01187ZM1.84461 2.94736C1.49113 3.30084 1.22294 3.56123 1.02193 3.91906L2.25705 4.61289C2.34256 4.46068 2.44952 4.34592 2.84634 3.9491L1.84461 2.94736ZM2.07552 5.31094C2.07492 5.10859 2.15795 4.78931 2.25706 4.61289L1.02193 3.91906C0.8031 4.30861 0.657534 4.86836 0.658863 5.31516L2.07552 5.31094ZM9.77791 12.4737C9.85286 12.5097 9.95205 12.5594 10.0746 12.5951L10.4711 11.2351C10.4778 11.237 10.4813 11.2388 10.4733 11.2354C10.4678 11.2329 10.4592 11.2291 10.445 11.2224C10.4305 11.2156 10.4138 11.2076 10.3911 11.1966L9.77791 12.4737ZM10.5514 11.1548C10.5078 11.1983 10.4869 11.2191 10.4713 11.2338C10.4594 11.2449 10.4618 11.2417 10.4711 11.2351L11.2959 12.3869C11.4011 12.3115 11.4872 12.2224 11.5531 12.1565L10.5514 11.1548ZM10.0746 12.5951C10.4819 12.7139 10.9509 12.6339 11.2959 12.3869L10.4711 11.2351C10.4788 11.2295 10.4826 11.2283 10.481 11.2289C10.4796 11.2295 10.4758 11.2307 10.4705 11.2316C10.4652 11.2326 10.4612 11.2326 10.4597 11.2325C10.458 11.2325 10.462 11.2324 10.4711 11.2351L10.0746 12.5951ZM5.86657 6.67214C5.85564 6.64937 5.84764 6.6327 5.84083 6.61823C5.83414 6.60401 5.83027 6.59547 5.82787 6.58994C5.8244 6.58195 5.82621 6.58545 5.82815 6.59212L4.46809 6.98859C4.50383 7.11117 4.55349 7.21036 4.58947 7.2853L5.86657 6.67214ZM4.90672 5.51009C4.84078 5.57603 4.7517 5.6621 4.67633 5.76736L5.82815 6.59213C5.82152 6.60139 5.81832 6.60385 5.82945 6.59195C5.84409 6.57631 5.86487 6.55541 5.90845 6.51183L4.90672 5.51009ZM5.82815 6.59212C5.83082 6.60127 5.83075 6.60522 5.83068 6.60355C5.83061 6.60198 5.83066 6.59803 5.83157 6.59271C5.83248 6.58739 5.83374 6.58364 5.83432 6.58219C5.83494 6.58063 5.8337 6.58438 5.82816 6.59212L4.67633 5.76736C4.42933 6.11231 4.34936 6.58127 4.46809 6.98859L5.82815 6.59212ZM9.81653 4.94457C10.37 5.05256 10.8787 5.32325 11.2774 5.722L12.2792 4.72027C11.681 4.12214 10.918 3.7161 10.0878 3.55412L9.81653 4.94457ZM11.2774 5.722C11.6762 6.12075 11.9469 6.62942 12.0549 7.18291L13.4453 6.91162C13.2833 6.0814 12.8773 5.3184 12.2792 4.72027L11.2774 5.722ZM9.87396 2.12002C11.1517 2.26196 12.3431 2.83413 13.2527 3.74258L14.2538 2.74021C13.1168 1.60465 11.6275 0.88944 10.0304 0.712013L9.87396 2.12002ZM13.2527 3.74258C14.1623 4.65103 14.736 5.84176 14.8795 7.11928L16.2873 6.96109C16.1079 5.3642 15.3908 3.87578 14.2538 2.74021L13.2527 3.74258Z" fill="white"/>
</svg>
