<svg width="55" height="55" viewBox="0 0 55 55" fill="none" xmlns="http://www.w3.org/2000/svg">
<circle opacity="0.1" cx="27.5" cy="27.5" r="27.5" fill="#FFBD27"/>
<path d="M38.75 37H16.25C15.9185 37 15.6005 36.8683 15.3661 36.6339C15.1317 36.3995 15 36.0815 15 35.75C15 35.4185 15.1317 35.1005 15.3661 34.8661C15.6005 34.6317 15.9185 34.5 16.25 34.5H38.75C39.0815 34.5 39.3995 34.6317 39.6339 34.8661C39.8683 35.1005 40 35.4185 40 35.75C40 36.0815 39.8683 36.3995 39.6339 36.6339C39.3995 36.8683 39.0815 37 38.75 37ZM18.75 19.5V29.5H36.25V19.5H18.75ZM18.75 17H36.25C36.913 17 37.5489 17.2634 38.0178 17.7322C38.4866 18.2011 38.75 18.837 38.75 19.5V29.5C38.75 30.163 38.4866 30.7989 38.0178 31.2678C37.5489 31.7366 36.913 32 36.25 32H18.75C18.087 32 17.4511 31.7366 16.9822 31.2678C16.5134 30.7989 16.25 30.163 16.25 29.5V19.5C16.25 18.837 16.5134 18.2011 16.9822 17.7322C17.4511 17.2634 18.087 17 18.75 17Z" fill="#FFBD27"/>
</svg>
