<svg width="28" height="21" viewBox="0 0 28 21" fill="none" xmlns="http://www.w3.org/2000/svg">
<path d="M26.5197 0.310172C26.2871 0.852974 26.132 1.58963 26.0932 2.05489C25.4729 2.05489 24.9688 2.55892 24.9688 3.17927C24.9688 3.79961 25.4729 4.30364 26.0932 4.30364C26.1707 4.30364 26.2483 4.30364 26.3258 4.26487C26.2483 5.93204 24.8913 7.25028 23.1853 7.25028C21.4794 7.25028 20.1224 5.93204 20.0448 4.26487C20.5489 4.18733 20.9754 3.72207 20.9754 3.17927C20.9754 2.55892 20.4713 2.05489 19.851 2.05489H19.7347C19.5796 1.27946 19.1531 0.0387717 18.6491 0.0387717C18.145 0.0387717 17.7185 1.24069 17.5635 2.05489C17.4859 2.05489 17.4084 2.01612 17.3308 2.01612C16.7105 2.01612 16.2065 2.52015 16.2065 3.14049C16.2065 3.6833 16.5942 4.14855 17.137 4.26487C17.0594 5.93204 15.7024 7.25028 13.9965 7.25028C12.2905 7.25028 10.9335 5.89327 10.856 4.2261C11.36 4.10978 11.709 3.6833 11.709 3.14049C11.709 2.52015 11.2049 2.01612 10.5846 2.01612H10.4683C10.3132 1.24069 9.8867 0 9.38267 0C8.87864 0 8.45215 1.20192 8.29707 2.01612C8.21952 2.01612 8.14198 1.97735 8.06444 1.97735C7.44409 1.97735 6.94006 2.48138 6.94006 3.10172C6.94006 3.6833 7.36655 4.14855 7.94812 4.2261C7.87058 5.89327 6.47481 7.2115 4.80763 7.2115C3.10168 7.2115 1.74468 5.89327 1.66714 4.2261C1.74468 4.2261 1.82222 4.26487 1.89977 4.26487C2.52011 4.26487 3.02414 3.76084 3.02414 3.14049C3.02414 2.52015 2.52011 2.01612 1.89977 2.01612H1.82222C1.74468 1.51209 1.62836 0.852974 1.47328 0.310172C1.35696 -0.116315 0.775391 -0.0387714 0.775391 0.426487V18.5716H27.2951V0.50403C27.2176 0.0387716 26.7135 -0.077543 26.5197 0.310172Z" fill="#FFB636"/>
<path d="M27.4502 13.028H0.465258C0.193858 13.028 0 12.8342 0 12.5628V11.2446C0 10.9732 0.193858 10.7793 0.465258 10.7793H27.4115C27.6829 10.7793 27.8767 10.9732 27.8767 11.2446V12.5628C27.9155 12.8342 27.7216 13.028 27.4502 13.028ZM27.9155 19.6192V18.301C27.9155 18.0296 27.7216 17.8357 27.4502 17.8357H0.465258C0.193858 17.8357 0 18.0296 0 18.301V19.6192C0 19.8906 0.193858 20.0845 0.465258 20.0845H27.4115C27.7216 20.0845 27.9155 19.8906 27.9155 19.6192Z" fill="#FFD469"/>
<path d="M24.9695 15.5083C24.9695 16.2062 24.4267 16.749 23.7288 16.749C23.0309 16.749 22.4881 16.2062 22.4881 15.5083C22.4881 14.8104 23.0309 14.2676 23.7288 14.2676C24.4267 14.2676 24.9695 14.8104 24.9695 15.5083ZM13.9584 14.2676C13.2605 14.2676 12.7177 14.8104 12.7177 15.5083C12.7177 16.2062 13.2605 16.749 13.9584 16.749C14.6563 16.749 15.1991 16.2062 15.1991 15.5083C15.1991 14.8104 14.6563 14.2676 13.9584 14.2676ZM4.18795 14.2676C3.49007 14.2676 2.94727 14.8104 2.94727 15.5083C2.94727 16.2062 3.49007 16.749 4.18795 16.749C4.88584 16.749 5.42864 16.1674 5.42864 15.5083C5.42864 14.8492 4.88584 14.2676 4.18795 14.2676Z" fill="#003585"/>
<path d="M24.9695 15.5083C24.9695 16.2062 24.4267 16.749 23.7288 16.749C23.0309 16.749 22.4881 16.2062 22.4881 15.5083C22.4881 14.8104 23.0309 14.2676 23.7288 14.2676C24.4267 14.2676 24.9695 14.8104 24.9695 15.5083ZM13.9584 14.2676C13.2605 14.2676 12.7177 14.8104 12.7177 15.5083C12.7177 16.2062 13.2605 16.749 13.9584 16.749C14.6563 16.749 15.1991 16.2062 15.1991 15.5083C15.1991 14.8104 14.6563 14.2676 13.9584 14.2676ZM4.18795 14.2676C3.49007 14.2676 2.94727 14.8104 2.94727 15.5083C2.94727 16.2062 3.49007 16.749 4.18795 16.749C4.88584 16.749 5.42864 16.1674 5.42864 15.5083C5.42864 14.8492 4.88584 14.2676 4.18795 14.2676Z" fill="black" fill-opacity="0.2"/>
<path d="M24.9695 15.5083C24.9695 16.2062 24.4267 16.749 23.7288 16.749C23.0309 16.749 22.4881 16.2062 22.4881 15.5083C22.4881 14.8104 23.0309 14.2676 23.7288 14.2676C24.4267 14.2676 24.9695 14.8104 24.9695 15.5083ZM13.9584 14.2676C13.2605 14.2676 12.7177 14.8104 12.7177 15.5083C12.7177 16.2062 13.2605 16.749 13.9584 16.749C14.6563 16.749 15.1991 16.2062 15.1991 15.5083C15.1991 14.8104 14.6563 14.2676 13.9584 14.2676ZM4.18795 14.2676C3.49007 14.2676 2.94727 14.8104 2.94727 15.5083C2.94727 16.2062 3.49007 16.749 4.18795 16.749C4.88584 16.749 5.42864 16.1674 5.42864 15.5083C5.42864 14.8492 4.88584 14.2676 4.18795 14.2676Z" fill="black" fill-opacity="0.2"/>
</svg>
