<svg width="27" height="27" viewBox="0 0 27 27" fill="none" xmlns="http://www.w3.org/2000/svg">
<path d="M13.5002 0.583984C6.37791 0.583984 0.583496 6.3784 0.583496 13.5007V18.852C0.583496 20.1747 1.74212 21.2507 3.16683 21.2507H4.4585C4.80107 21.2507 5.12961 21.1146 5.37184 20.8723C5.61408 20.6301 5.75016 20.3016 5.75016 19.959V13.3159C5.75016 12.9734 5.61408 12.6448 5.37184 12.4026C5.12961 12.1604 4.80107 12.0243 4.4585 12.0243H3.28566C4.00383 7.02553 8.30508 3.16732 13.5002 3.16732C18.6952 3.16732 22.9965 7.02553 23.7147 12.0243H22.5418C22.1993 12.0243 21.8707 12.1604 21.6285 12.4026C21.3862 12.6448 21.2502 12.9734 21.2502 13.3159V21.2507C21.2502 22.6754 20.0915 23.834 18.6668 23.834H16.0835V22.5423H10.9168V26.4173H18.6668C21.5162 26.4173 23.8335 24.1001 23.8335 21.2507C25.2582 21.2507 26.4168 20.1747 26.4168 18.852V13.5007C26.4168 6.3784 20.6224 0.583984 13.5002 0.583984Z" fill="#F87F2D"/>
</svg>
