<svg width="55" height="55" viewBox="0 0 55 55" fill="none" xmlns="http://www.w3.org/2000/svg">
<circle opacity="0.1" cx="27.5" cy="27.5" r="27.5" fill="#0180FE"/>
<path d="M25.3478 14C25.5732 14 25.7893 14.0895 25.9487 14.2489C26.108 14.4083 26.1976 14.6244 26.1976 14.8498V18.249C26.1976 18.4744 26.108 18.6905 25.9487 18.8499C25.7893 19.0093 25.5732 19.0988 25.3478 19.0988C25.1224 19.0988 24.9062 19.0093 24.7469 18.8499C24.5875 18.6905 24.498 18.4744 24.498 18.249V14.8498C24.498 14.6244 24.5875 14.4083 24.7469 14.2489C24.9062 14.0895 25.1224 14 25.3478 14ZM18.7363 16.7363C18.8153 16.6572 18.9091 16.5944 19.0123 16.5516C19.1155 16.5087 19.2262 16.4867 19.338 16.4867C19.4498 16.4867 19.5605 16.5087 19.6637 16.5516C19.7669 16.5944 19.8607 16.6572 19.9397 16.7363L22.3429 19.1413C22.4241 19.2197 22.4888 19.3134 22.5333 19.4171C22.5779 19.5208 22.6013 19.6323 22.6023 19.7451C22.6033 19.858 22.5818 19.9699 22.539 20.0743C22.4963 20.1788 22.4332 20.2736 22.3534 20.3534C22.2736 20.4332 22.1788 20.4963 22.0743 20.539C21.9699 20.5818 21.858 20.6033 21.7451 20.6023C21.6323 20.6013 21.5208 20.5779 21.4171 20.5333C21.3134 20.4888 21.2197 20.4241 21.1413 20.3429L18.738 17.9397C18.5787 17.7803 18.4892 17.5642 18.4892 17.3389C18.4892 17.1135 18.5787 16.8974 18.738 16.738L18.7363 16.7363ZM31.9592 16.7363C32.0383 16.8153 32.1011 16.9091 32.144 17.0123C32.1868 17.1155 32.2089 17.2262 32.2089 17.338C32.2089 17.4498 32.1868 17.5605 32.144 17.6637C32.1011 17.7669 32.0383 17.8607 31.9592 17.9397L29.5526 20.3429C29.4742 20.4241 29.3804 20.4888 29.2767 20.5333C29.1731 20.5779 29.0615 20.6013 28.9487 20.6023C28.8359 20.6033 28.724 20.5818 28.6195 20.539C28.5151 20.4963 28.4202 20.4332 28.3404 20.3534C28.2606 20.2736 28.1975 20.1788 28.1548 20.0743C28.1121 19.9699 28.0906 19.858 28.0916 19.7451C28.0925 19.6323 28.116 19.5208 28.1605 19.4171C28.2051 19.3134 28.2698 19.2197 28.351 19.1413L30.7542 16.738C30.9136 16.5787 31.1297 16.4892 31.355 16.4892C31.5803 16.4892 31.7964 16.5787 31.9558 16.738L31.9592 16.7363ZM16 23.3478C16 23.1224 16.0895 22.9062 16.2489 22.7469C16.4083 22.5875 16.6244 22.498 16.8498 22.498H20.249C20.4744 22.498 20.6905 22.5875 20.8499 22.7469C21.0093 22.9062 21.0988 23.1224 21.0988 23.3478C21.0988 23.5732 21.0093 23.7893 20.8499 23.9487C20.6905 24.108 20.4744 24.1976 20.249 24.1976H16.8498C16.6244 24.1976 16.4083 24.108 16.2489 23.9487C16.0895 23.7893 16 23.5732 16 23.3478ZM27.2853 23.0079C27.0373 22.8013 26.7355 22.6696 26.4154 22.6282C26.0953 22.5868 25.77 22.6375 25.4776 22.7742C25.1851 22.911 24.9377 23.1282 24.7643 23.4004C24.5908 23.6726 24.4984 23.9886 24.498 24.3114V39.7795C24.498 41.3499 26.444 42.0807 27.4774 40.8995L30.9208 36.9632C31.1603 36.6901 31.4554 36.4713 31.7863 36.3216C32.1172 36.1718 32.4763 36.0944 32.8396 36.0947H38.297C39.8861 36.0947 40.6067 34.1062 39.3847 33.0899L27.2853 23.0062V23.0079ZM26.1976 39.7829V24.3114L38.297 34.3951H32.8396C32.2338 34.3951 31.6349 34.5245 31.0833 34.7749C30.5316 35.0252 30.0398 35.3906 29.641 35.8466L26.1976 39.7812V39.7829Z" fill="#0180FE"/>
</svg>
