<svg width="20" height="20" viewBox="0 0 20 20" fill="none" xmlns="http://www.w3.org/2000/svg">
<path d="M6.50478 4.87812C6.50478 5.77623 5.77672 6.50429 4.87861 6.50429C3.9805 6.50429 3.25244 5.77623 3.25244 4.87812C3.25244 3.98001 3.9805 3.25195 4.87861 3.25195C5.77672 3.25195 6.50478 3.98001 6.50478 4.87812Z" fill="black"/>
<path d="M6.50478 9.75663C6.50478 10.6547 5.77672 11.3828 4.87861 11.3828C3.9805 11.3828 3.25244 10.6547 3.25244 9.75663C3.25244 8.85852 3.9805 8.13046 4.87861 8.13046C5.77672 8.13046 6.50478 8.85852 6.50478 9.75663Z" fill="black"/>
<path d="M4.87861 16.2613C5.77672 16.2613 6.50478 15.5332 6.50478 14.6351C6.50478 13.737 5.77672 13.009 4.87861 13.009C3.9805 13.009 3.25244 13.737 3.25244 14.6351C3.25244 15.5332 3.9805 16.2613 4.87861 16.2613Z" fill="black"/>
<path d="M11.3833 4.87812C11.3833 5.77623 10.6552 6.50429 9.75711 6.50429C8.85901 6.50429 8.13095 5.77623 8.13095 4.87812C8.13095 3.98001 8.85901 3.25195 9.75711 3.25195C10.6552 3.25195 11.3833 3.98001 11.3833 4.87812Z" fill="black"/>
<path d="M9.75711 11.3828C10.6552 11.3828 11.3833 10.6547 11.3833 9.75663C11.3833 8.85852 10.6552 8.13046 9.75711 8.13046C8.85901 8.13046 8.13095 8.85852 8.13095 9.75663C8.13095 10.6547 8.85901 11.3828 9.75711 11.3828Z" fill="black"/>
<path d="M11.3833 14.6351C11.3833 15.5332 10.6552 16.2613 9.75711 16.2613C8.85901 16.2613 8.13095 15.5332 8.13095 14.6351C8.13095 13.737 8.85901 13.009 9.75711 13.009C10.6552 13.009 11.3833 13.737 11.3833 14.6351Z" fill="black"/>
<path d="M14.6356 6.50429C15.5337 6.50429 16.2618 5.77623 16.2618 4.87812C16.2618 3.98001 15.5337 3.25195 14.6356 3.25195C13.7375 3.25195 13.0095 3.98001 13.0095 4.87812C13.0095 5.77623 13.7375 6.50429 14.6356 6.50429Z" fill="black"/>
<path d="M16.2618 9.75663C16.2618 10.6547 15.5337 11.3828 14.6356 11.3828C13.7375 11.3828 13.0095 10.6547 13.0095 9.75663C13.0095 8.85852 13.7375 8.13046 14.6356 8.13046C15.5337 8.13046 16.2618 8.85852 16.2618 9.75663Z" fill="black"/>
<path d="M14.6356 16.2613C15.5337 16.2613 16.2618 15.5332 16.2618 14.6351C16.2618 13.737 15.5337 13.009 14.6356 13.009C13.7375 13.009 13.0095 13.737 13.0095 14.6351C13.0095 15.5332 13.7375 16.2613 14.6356 16.2613Z" fill="black"/>
</svg>
