<svg width="30" height="30" viewBox="0 0 30 30" fill="none" xmlns="http://www.w3.org/2000/svg">
<path d="M25.8875 9.975L20.0375 4.125C19.8 3.8875 19.475 3.75 19.15 3.75H10.85C10.525 3.75 10.2 3.8875 9.975 4.1125L4.1125 9.975C3.8875 10.2 3.75 10.525 3.75 10.85V19.1375C3.75 19.475 3.8875 19.7875 4.1125 20.025L9.9625 25.875C10.2 26.1125 10.525 26.25 10.85 26.25H19.1375C19.475 26.25 19.7875 26.1125 20.025 25.8875L25.875 20.0375C25.9914 19.9211 26.0834 19.7827 26.1457 19.6303C26.2079 19.4779 26.2391 19.3146 26.2375 19.15V10.85C26.25 10.525 26.1125 10.2 25.8875 9.975ZM23.75 18.625L18.625 23.75H11.375L6.25 18.625V11.375L11.375 6.25H18.625L23.75 11.375V18.625Z" fill="#DC3545"/>
<path d="M15 21.25C15.6904 21.25 16.25 20.6904 16.25 20C16.25 19.3096 15.6904 18.75 15 18.75C14.3096 18.75 13.75 19.3096 13.75 20C13.75 20.6904 14.3096 21.25 15 21.25Z" fill="#DC3545"/>
<path d="M15 8.75C14.3125 8.75 13.75 9.3125 13.75 10V16.25C13.75 16.9375 14.3125 17.5 15 17.5C15.6875 17.5 16.25 16.9375 16.25 16.25V10C16.25 9.3125 15.6875 8.75 15 8.75Z" fill="#DC3545"/>
</svg>
