<svg width="28" height="28" viewBox="0 0 28 28" fill="none" xmlns="http://www.w3.org/2000/svg">
<path d="M16.0996 10.5008C16.0996 11.0577 15.8784 11.5919 15.4845 11.9857C15.0907 12.3795 14.5566 12.6008 13.9996 12.6008C13.4427 12.6008 12.9085 12.3795 12.5147 11.9857C12.1209 11.5919 11.8996 11.0577 11.8996 10.5008C11.8996 9.94383 12.1209 9.40968 12.5147 9.01586C12.9085 8.62203 13.4427 8.40078 13.9996 8.40078C14.5566 8.40078 15.0907 8.62203 15.4845 9.01586C15.8784 9.40968 16.0996 9.94383 16.0996 10.5008ZM9.79961 15.0508V15.4008C9.79961 16.1434 10.0946 16.8556 10.6197 17.3807C11.1448 17.9058 11.857 18.2008 12.5996 18.2008H15.3996C16.1422 18.2008 16.8544 17.9058 17.3795 17.3807C17.9046 16.8556 18.1996 16.1434 18.1996 15.4008V15.0508C18.1996 14.7723 18.089 14.5052 17.8921 14.3083C17.6952 14.1114 17.4281 14.0008 17.1496 14.0008H10.8496C10.5711 14.0008 10.3041 14.1114 10.1071 14.3083C9.91023 14.5052 9.79961 14.7723 9.79961 15.0508ZM5.59961 5.60078V22.4008C5.59961 23.1434 5.89461 23.8556 6.41971 24.3807C6.94481 24.9058 7.657 25.2008 8.39961 25.2008H21.6996C21.8853 25.2008 22.0633 25.127 22.1946 24.9958C22.3259 24.8645 22.3996 24.6864 22.3996 24.5008C22.3996 24.3151 22.3259 24.1371 22.1946 24.0058C22.0633 23.8745 21.8853 23.8008 21.6996 23.8008H8.39961C8.02831 23.8008 7.67221 23.6533 7.40966 23.3907C7.14711 23.1282 6.99961 22.7721 6.99961 22.4008H20.9996C21.3709 22.4008 21.727 22.2533 21.9896 21.9907C22.2521 21.7282 22.3996 21.3721 22.3996 21.0008V5.60078C22.3996 4.85818 22.1046 4.14598 21.5795 3.62088C21.0544 3.09578 20.3422 2.80078 19.5996 2.80078H8.39961C7.657 2.80078 6.94481 3.09578 6.41971 3.62088C5.89461 4.14598 5.59961 4.85818 5.59961 5.60078ZM19.5996 4.20078C19.9709 4.20078 20.327 4.34828 20.5896 4.61083C20.8521 4.87338 20.9996 5.22948 20.9996 5.60078V21.0008H6.99961V5.60078C6.99961 5.22948 7.14711 4.87338 7.40966 4.61083C7.67221 4.34828 8.02831 4.20078 8.39961 4.20078H19.5996Z" fill="#0180FE"/>
</svg>
