<svg width="30" height="30" viewBox="0 0 30 30" fill="none" xmlns="http://www.w3.org/2000/svg">
<path d="M24.6813 5C25.4272 5 26.1425 5.29632 26.67 5.82376C27.1974 6.35121 27.4938 7.06658 27.4938 7.8125V16.0063C26.9356 15.4717 26.3043 15.0193 25.6188 14.6625V7.8125C25.6188 7.56386 25.52 7.3254 25.3442 7.14959C25.1683 6.97377 24.9299 6.875 24.6813 6.875H5.3125C5.06386 6.875 4.8254 6.97377 4.64959 7.14959C4.47377 7.3254 4.375 7.56386 4.375 7.8125V22.1937C4.375 22.7112 4.795 23.1312 5.3125 23.1312L8.74875 23.13L8.75 19.6875C8.75002 19.1385 8.95646 18.6096 9.32835 18.2058C9.70024 17.8019 10.2104 17.5527 10.7575 17.5075L10.9375 17.5H15.0275C14.6529 18.0844 14.355 18.7146 14.1412 19.375H10.9375C10.8671 19.3751 10.7988 19.399 10.7437 19.4428C10.6885 19.4866 10.6498 19.5477 10.6337 19.6163L10.625 19.6875L10.6237 23.13H13.8462C13.9461 23.7741 14.1236 24.4037 14.375 25.005H5.3125C4.5668 25.005 3.85161 24.7089 3.3242 24.1817C2.79679 23.6545 2.50033 22.9395 2.5 22.1937V7.8125C2.5 7.06658 2.79632 6.35121 3.32376 5.82376C3.85121 5.29632 4.56658 5 5.3125 5H24.6813ZM15 8.75C15.9946 8.75 16.9484 9.14509 17.6517 9.84835C18.3549 10.5516 18.75 11.5054 18.75 12.5C18.75 13.4946 18.3549 14.4484 17.6517 15.1517C16.9484 15.8549 15.9946 16.25 15 16.25C14.0054 16.25 13.0516 15.8549 12.3483 15.1517C11.6451 14.4484 11.25 13.4946 11.25 12.5C11.25 11.5054 11.6451 10.5516 12.3483 9.84835C13.0516 9.14509 14.0054 8.75 15 8.75ZM15 10.625C14.5027 10.625 14.0258 10.8225 13.6742 11.1742C13.3225 11.5258 13.125 12.0027 13.125 12.5C13.125 12.9973 13.3225 13.4742 13.6742 13.8258C14.0258 14.1775 14.5027 14.375 15 14.375C15.4973 14.375 15.9742 14.1775 16.3258 13.8258C16.6775 13.4742 16.875 12.9973 16.875 12.5C16.875 12.0027 16.6775 11.5258 16.3258 11.1742C15.9742 10.8225 15.4973 10.625 15 10.625ZM28.75 21.875C28.75 23.6984 28.0257 25.447 26.7364 26.7364C25.447 28.0257 23.6984 28.75 21.875 28.75C20.0516 28.75 18.303 28.0257 17.0136 26.7364C15.7243 25.447 15 23.6984 15 21.875C15 20.0516 15.7243 18.303 17.0136 17.0136C18.303 15.7243 20.0516 15 21.875 15C23.6984 15 25.447 15.7243 26.7364 17.0136C28.0257 18.303 28.75 20.0516 28.75 21.875ZM22.5688 18.025C22.5258 17.8741 22.4349 17.7413 22.3097 17.6467C22.1845 17.5522 22.0319 17.501 21.875 17.501C21.7181 17.501 21.5655 17.5522 21.4403 17.6467C21.3151 17.7413 21.2242 17.8741 21.1812 18.025L20.485 20.26H18.2312C17.5238 20.26 17.2312 21.2025 17.8025 21.635L19.625 23.0163L18.9287 25.25C18.71 25.9513 19.48 26.535 20.0525 26.1012L21.875 24.7213L23.6975 26.1012C24.27 26.535 25.04 25.9513 24.8213 25.2513L24.125 23.0163L25.9475 21.6362C26.52 21.2025 26.2263 20.26 25.5188 20.26H23.265L22.5688 18.0262V18.025Z" fill="#F87F2D"/>
</svg>
