<svg width="28" height="28" viewBox="0 0 28 28" fill="none" xmlns="http://www.w3.org/2000/svg">
<path d="M2.975 13.8244C3.1253 13.9402 3.31029 14.0019 3.5 13.9994C3.63584 13.9994 3.76982 13.9678 3.89132 13.9071C4.01281 13.8463 4.1185 13.7581 4.2 13.6494C4.72913 12.9445 5.41486 12.3722 6.20307 11.9777C6.99128 11.5832 7.86039 11.3773 8.74181 11.3762C9.62322 11.3752 10.4928 11.579 11.282 11.9716C12.0711 12.3642 12.7582 12.9348 13.2891 13.6385L13.3547 13.7151H13.3656L13.4203 13.7697H13.4422L13.475 13.8026H13.4859C13.5161 13.8282 13.5491 13.8502 13.5844 13.8682L13.6172 13.8901L13.7156 13.9338H14.2078L14.2844 13.9119H14.2953L14.3828 13.8791H14.4047L14.4594 13.8463L14.4922 13.8244L14.525 13.8026C14.5279 13.8026 14.5307 13.8014 14.5327 13.7994C14.5348 13.7973 14.5359 13.7945 14.5359 13.7916L14.5688 13.7588C14.5882 13.75 14.6037 13.7345 14.6125 13.7151H14.6344L14.6891 13.6494H14.7C15.2298 12.9431 15.9167 12.3698 16.7065 11.9749C17.4962 11.58 18.367 11.3744 19.25 11.3744C20.133 11.3744 21.0038 11.58 21.7935 11.9749C22.5833 12.3698 23.2702 12.9431 23.8 13.6494C23.941 13.8327 24.148 13.9536 24.3769 13.9863C24.6058 14.0189 24.8384 13.9609 25.025 13.8244C25.1169 13.7555 25.1944 13.6691 25.2529 13.5702C25.3115 13.4714 25.35 13.3619 25.3662 13.2482C25.3825 13.1344 25.3761 13.0186 25.3476 12.9073C25.3191 12.796 25.2689 12.6914 25.2 12.5994C24.4256 11.56 23.3923 10.7416 22.2031 10.226C22.8538 9.63075 23.3094 8.85276 23.5101 7.99406C23.7109 7.13536 23.6475 6.23604 23.3282 5.41401C23.0089 4.59199 22.4486 3.88564 21.7209 3.38759C20.9931 2.88954 20.1319 2.62305 19.25 2.62305C18.3681 2.62305 17.5069 2.88954 16.7791 3.38759C16.0514 3.88564 15.4911 4.59199 15.1718 5.41401C14.8525 6.23604 14.7891 7.13536 14.9899 7.99406C15.1907 8.85276 15.6462 9.63075 16.2969 10.226C15.4399 10.5987 14.6607 11.1292 14 11.7901C13.3393 11.1292 12.5601 10.5987 11.7031 10.226C12.3538 9.63075 12.8094 8.85276 13.0101 7.99406C13.2109 7.13536 13.1475 6.23604 12.8282 5.41401C12.5089 4.59199 11.9486 3.88564 11.2209 3.38759C10.4931 2.88954 9.63186 2.62305 8.75 2.62305C7.86815 2.62305 7.00688 2.88954 6.27913 3.38759C5.55138 3.88564 4.99112 4.59199 4.67183 5.41401C4.35255 6.23604 4.28912 7.13536 4.48989 7.99406C4.69065 8.85276 5.14623 9.63075 5.79688 10.226C4.60766 10.7416 3.57436 11.56 2.8 12.5994C2.73106 12.6914 2.6809 12.796 2.65238 12.9073C2.62386 13.0186 2.61755 13.1344 2.6338 13.2482C2.65005 13.3619 2.68854 13.4714 2.74709 13.5702C2.80563 13.6691 2.88308 13.7555 2.975 13.8244ZM16.625 6.99944C16.625 6.48026 16.779 5.97274 17.0674 5.54106C17.3558 5.10939 17.7658 4.77293 18.2455 4.57425C18.7251 4.37557 19.2529 4.32359 19.7621 4.42488C20.2713 4.52616 20.739 4.77617 21.1062 5.14328C21.4733 5.51039 21.7233 5.97812 21.8246 6.48733C21.9259 6.99653 21.8739 7.52432 21.6752 8.00398C21.4765 8.48364 21.1401 8.89361 20.7084 9.18204C20.2767 9.47048 19.7692 9.62444 19.25 9.62444C18.5547 9.62156 17.8887 9.34407 17.397 8.85241C16.9054 8.36075 16.6279 7.69474 16.625 6.99944ZM6.125 6.99944C6.125 6.48026 6.27896 5.97274 6.5674 5.54106C6.85583 5.10939 7.2658 4.77293 7.74546 4.57425C8.22512 4.37557 8.75292 4.32359 9.26212 4.42488C9.77132 4.52616 10.239 4.77617 10.6062 5.14328C10.9733 5.51039 11.2233 5.97812 11.3246 6.48733C11.4259 6.99653 11.3739 7.52432 11.1752 8.00398C10.9765 8.48364 10.6401 8.89361 10.2084 9.18204C9.7767 9.47048 9.26918 9.62444 8.75 9.62444C8.0547 9.62156 7.38869 9.34407 6.89703 8.85241C6.40537 8.36075 6.12788 7.69474 6.125 6.99944ZM22.2031 21.601C22.8538 21.0057 23.3094 20.2278 23.5101 19.3691C23.7109 18.5104 23.6475 17.611 23.3282 16.789C23.0089 15.967 22.4486 15.2606 21.7209 14.7626C20.9931 14.2645 20.1319 13.998 19.25 13.998C18.3681 13.998 17.5069 14.2645 16.7791 14.7626C16.0514 15.2606 15.4911 15.967 15.1718 16.789C14.8525 17.611 14.7891 18.5104 14.9899 19.3691C15.1907 20.2278 15.6462 21.0057 16.2969 21.601C15.4399 21.9737 14.6607 22.5042 14 23.1651C13.3393 22.5042 12.5601 21.9737 11.7031 21.601C12.3538 21.0057 12.8094 20.2278 13.0101 19.3691C13.2109 18.5104 13.1475 17.611 12.8282 16.789C12.5089 15.967 11.9486 15.2606 11.2209 14.7626C10.4931 14.2645 9.63186 13.998 8.75 13.998C7.86815 13.998 7.00688 14.2645 6.27913 14.7626C5.55138 15.2606 4.99112 15.967 4.67183 16.789C4.35255 17.611 4.28912 18.5104 4.48989 19.3691C4.69065 20.2278 5.14623 21.0057 5.79688 21.601C4.60766 22.1166 3.57436 22.935 2.8 23.9744C2.66076 24.1601 2.60098 24.3934 2.6338 24.6232C2.66662 24.8529 2.78935 25.0602 2.975 25.1994C3.1253 25.3152 3.31029 25.3769 3.5 25.3744C3.63584 25.3744 3.76982 25.3428 3.89132 25.2821C4.01281 25.2213 4.1185 25.1331 4.2 25.0244C4.72913 24.3195 5.41486 23.7472 6.20307 23.3527C6.99128 22.9582 7.86039 22.7523 8.74181 22.7512C9.62322 22.7502 10.4928 22.954 11.282 23.3466C12.0711 23.7392 12.7582 24.3098 13.2891 25.0135L13.3547 25.0901H13.3656L13.4203 25.1447H13.4422L13.475 25.1776H13.4859L13.5844 25.2432L13.6172 25.2651L13.7156 25.3088H14.2078L14.2844 25.2869H14.2953L14.3828 25.2541H14.4047L14.4594 25.2213L14.4922 25.1994L14.525 25.1776H14.5359L14.5688 25.1447C14.5882 25.136 14.6037 25.1204 14.6125 25.101H14.6344L14.6891 25.0354H14.7C15.2298 24.329 15.9167 23.7557 16.7065 23.3608C17.4962 22.966 18.367 22.7604 19.25 22.7604C20.133 22.7604 21.0038 22.966 21.7935 23.3608C22.5833 23.7557 23.2702 24.329 23.8 25.0354C23.941 25.2186 24.148 25.3395 24.3769 25.3722C24.6058 25.4049 24.8384 25.3468 25.025 25.2104C25.1169 25.1414 25.1944 25.0551 25.2529 24.9562C25.3115 24.8573 25.35 24.7479 25.3662 24.6341C25.3825 24.5204 25.3761 24.4045 25.3476 24.2932C25.3191 24.1819 25.2689 24.0773 25.2 23.9854C24.427 22.9419 23.3936 22.1197 22.2031 21.601ZM6.125 18.3744C6.125 17.8553 6.27896 17.3477 6.5674 16.9161C6.85583 16.4844 7.2658 16.1479 7.74546 15.9493C8.22512 15.7506 8.75292 15.6986 9.26212 15.7999C9.77132 15.9012 10.239 16.1512 10.6062 16.5183C10.9733 16.8854 11.2233 17.3531 11.3246 17.8623C11.4259 18.3715 11.3739 18.8993 11.1752 19.379C10.9765 19.8586 10.6401 20.2686 10.2084 20.557C9.7767 20.8455 9.26918 20.9994 8.75 20.9994C8.0547 20.9966 7.38869 20.7191 6.89703 20.2274C6.40537 19.7358 6.12788 19.0697 6.125 18.3744ZM16.625 18.3744C16.625 17.8553 16.779 17.3477 17.0674 16.9161C17.3558 16.4844 17.7658 16.1479 18.2455 15.9493C18.7251 15.7506 19.2529 15.6986 19.7621 15.7999C20.2713 15.9012 20.739 16.1512 21.1062 16.5183C21.4733 16.8854 21.7233 17.3531 21.8246 17.8623C21.9259 18.3715 21.8739 18.8993 21.6752 19.379C21.4765 19.8586 21.1401 20.2686 20.7084 20.557C20.2767 20.8455 19.7692 20.9994 19.25 20.9994C18.5547 20.9966 17.8887 20.7191 17.397 20.2274C16.9054 19.7358 16.6279 19.0697 16.625 18.3744Z" fill="#00BAA3"/>
</svg>
