<svg width="28" height="28" viewBox="0 0 28 28" fill="none" xmlns="http://www.w3.org/2000/svg">
<path d="M3.5 5.25V22.7416" stroke="#FFBD27" stroke-width="1.74913" stroke-linecap="round"/>
<path d="M24.5 10.5V22.75" stroke="#FFBD27" stroke-width="1.74913" stroke-linecap="round" stroke-linejoin="round"/>
<path d="M7 1.75H15.75" stroke="#FFBD27" stroke-width="1.74913" stroke-linecap="round" stroke-linejoin="round"/>
<path d="M7 26.25H21" stroke="#FFBD27" stroke-width="1.74913" stroke-linecap="round"/>
<path d="M24.5 22.75C24.5096 24.498 22.75 26.25 21 26.25" stroke="#FFBD27" stroke-width="1.74913" stroke-linecap="round" stroke-linejoin="round"/>
<path d="M3.5 22.75C3.5 24.5 5.25 26.25 7 26.25" stroke="#FFBD27" stroke-width="1.74913" stroke-linecap="round" stroke-linejoin="round"/>
<path d="M3.5 5.24805C3.5 3.50059 5.25 1.78956 7 1.75059" stroke="#FFBD27" stroke-width="1.74913" stroke-linecap="round" stroke-linejoin="round"/>
<path d="M24.4904 10.5079L15.75 1.75" stroke="#FFBD27" stroke-width="1.74913" stroke-linecap="round" stroke-linejoin="round"/>
<path d="M15.75 7C15.7554 8.74048 17.5071 10.5 19.25 10.5" stroke="#FFBD27" stroke-width="1.74913" stroke-linecap="round" stroke-linejoin="round"/>
<path d="M15.75 7V1.75" stroke="#FFBD27" stroke-width="1.74913" stroke-linecap="round" stroke-linejoin="round"/>
<path d="M19.25 10.5H24.5" stroke="#FFBD27" stroke-width="1.74913" stroke-linecap="round" stroke-linejoin="round"/>
<path d="M7 22.75H12.25" stroke="#FFBD27" stroke-width="1.75" stroke-linecap="round" stroke-linejoin="round"/>
<path d="M7 19.25H15.75" stroke="#FFBD27" stroke-width="1.75" stroke-linecap="round" stroke-linejoin="round"/>
<path d="M7 15.75H12.25" stroke="#FFBD27" stroke-width="1.75" stroke-linecap="round" stroke-linejoin="round"/>
</svg>
