<svg width="23" height="23" viewBox="0 0 23 23" fill="none" xmlns="http://www.w3.org/2000/svg">
<path d="M20.125 1.4375C20.5062 1.4375 20.8719 1.58895 21.1415 1.85853C21.411 2.12812 21.5625 2.49375 21.5625 2.875V14.375C21.5625 14.7562 21.411 15.1219 21.1415 15.3915C20.8719 15.661 20.5062 15.8125 20.125 15.8125H16.5312C16.0849 15.8125 15.6447 15.9164 15.2455 16.116C14.8463 16.3156 14.499 16.6054 14.2312 16.9625L11.5 20.6037L8.76875 16.9625C8.50095 16.6054 8.1537 16.3156 7.75449 16.116C7.35528 15.9164 6.91508 15.8125 6.46875 15.8125H2.875C2.49375 15.8125 2.12812 15.661 1.85853 15.3915C1.58895 15.1219 1.4375 14.7562 1.4375 14.375V2.875C1.4375 2.49375 1.58895 2.12812 1.85853 1.85853C2.12812 1.58895 2.49375 1.4375 2.875 1.4375H20.125ZM2.875 0C2.1125 0 1.38124 0.302901 0.842068 0.842068C0.302901 1.38124 0 2.1125 0 2.875L0 14.375C0 15.1375 0.302901 15.8688 0.842068 16.4079C1.38124 16.9471 2.1125 17.25 2.875 17.25H6.46875C6.69192 17.25 6.91201 17.302 7.11162 17.4018C7.31122 17.5016 7.48485 17.6465 7.61875 17.825L10.35 21.4662C10.4839 21.6447 10.6575 21.7896 10.8571 21.8894C11.0567 21.9892 11.2768 22.0412 11.5 22.0412C11.7232 22.0412 11.9433 21.9892 12.1429 21.8894C12.3425 21.7896 12.5161 21.6447 12.65 21.4662L15.3812 17.825C15.5151 17.6465 15.6888 17.5016 15.8884 17.4018C16.088 17.302 16.3081 17.25 16.5312 17.25H20.125C20.8875 17.25 21.6188 16.9471 22.1579 16.4079C22.6971 15.8688 23 15.1375 23 14.375V2.875C23 2.1125 22.6971 1.38124 22.1579 0.842068C21.6188 0.302901 20.8875 0 20.125 0L2.875 0Z" fill="#F87F2D"/>
<path d="M4.3125 5.03125C4.3125 4.84063 4.38823 4.65781 4.52302 4.52302C4.65781 4.38823 4.84063 4.3125 5.03125 4.3125H17.9688C18.1594 4.3125 18.3422 4.38823 18.477 4.52302C18.6118 4.65781 18.6875 4.84063 18.6875 5.03125C18.6875 5.22187 18.6118 5.40469 18.477 5.53948C18.3422 5.67427 18.1594 5.75 17.9688 5.75H5.03125C4.84063 5.75 4.65781 5.67427 4.52302 5.53948C4.38823 5.40469 4.3125 5.22187 4.3125 5.03125ZM4.3125 8.625C4.3125 8.43438 4.38823 8.25156 4.52302 8.11677C4.65781 7.98198 4.84063 7.90625 5.03125 7.90625H17.9688C18.1594 7.90625 18.3422 7.98198 18.477 8.11677C18.6118 8.25156 18.6875 8.43438 18.6875 8.625C18.6875 8.81562 18.6118 8.99844 18.477 9.13323C18.3422 9.26802 18.1594 9.34375 17.9688 9.34375H5.03125C4.84063 9.34375 4.65781 9.26802 4.52302 9.13323C4.38823 8.99844 4.3125 8.81562 4.3125 8.625ZM4.3125 12.2188C4.3125 12.0281 4.38823 11.8453 4.52302 11.7105C4.65781 11.5757 4.84063 11.5 5.03125 11.5H12.2188C12.4094 11.5 12.5922 11.5757 12.727 11.7105C12.8618 11.8453 12.9375 12.0281 12.9375 12.2188C12.9375 12.4094 12.8618 12.5922 12.727 12.727C12.5922 12.8618 12.4094 12.9375 12.2188 12.9375H5.03125C4.84063 12.9375 4.65781 12.8618 4.52302 12.727C4.38823 12.5922 4.3125 12.4094 4.3125 12.2188Z" fill="#F87F2D"/>
</svg>
