<svg width="20" height="27" viewBox="0 0 20 27" fill="none" xmlns="http://www.w3.org/2000/svg">
<path d="M0 3.375V23.625C0 24.5201 0.351189 25.3785 0.976311 26.0115C1.60143 26.6444 2.44928 27 3.33333 27H19.1667C19.3877 27 19.5996 26.9111 19.7559 26.7529C19.9122 26.5946 20 26.38 20 26.1562C20 25.9325 19.9122 25.7179 19.7559 25.5596C19.5996 25.4014 19.3877 25.3125 19.1667 25.3125H3.33333C2.89131 25.3125 2.46738 25.1347 2.15482 24.8182C1.84226 24.5018 1.66667 24.0726 1.66667 23.625H18.3333C18.7754 23.625 19.1993 23.4472 19.5118 23.1307C19.8244 22.8143 20 22.3851 20 21.9375V3.375C20 2.47989 19.6488 1.62145 19.0237 0.988514C18.3986 0.355579 17.5507 0 16.6667 0H3.33333C2.44928 0 1.60143 0.355579 0.976311 0.988514C0.351189 1.62145 0 2.47989 0 3.375ZM16.6667 1.6875C17.1087 1.6875 17.5326 1.86529 17.8452 2.18176C18.1577 2.49822 18.3333 2.92745 18.3333 3.375V21.9375H1.66667V3.375C1.66667 2.92745 1.84226 2.49822 2.15482 2.18176C2.46738 1.86529 2.89131 1.6875 3.33333 1.6875H16.6667ZM7.93333 7.44019C8.25 7.10437 8.85 6.75 10 6.75C11.15 6.75 11.75 7.10606 12.0667 7.44019C12.4 7.79456 12.5 8.20969 12.5 8.4375C12.5 9.20362 12.05 9.61537 11.295 9.99675C11.1068 10.0897 10.9162 10.1775 10.7233 10.26L10.6867 10.2769C10.504 10.3534 10.3239 10.4361 10.1467 10.5249C9.93789 10.6248 9.74426 10.7544 9.57167 10.9097C9.44615 11.0236 9.34534 11.1627 9.27563 11.3181C9.20592 11.4735 9.16881 11.6418 9.16667 11.8125V13.5C9.16667 13.7238 9.25446 13.9384 9.41074 14.0966C9.56702 14.2549 9.77899 14.3438 10 14.3438C10.221 14.3438 10.433 14.2549 10.5893 14.0966C10.7455 13.9384 10.8333 13.7238 10.8333 13.5V12.0656L10.895 12.0319C11.02 11.9678 11.1717 11.9019 11.3667 11.8176L11.385 11.8091C11.58 11.7231 11.8067 11.6235 12.0383 11.5054C12.95 11.0497 14.1667 10.2043 14.1667 8.4375C14.1667 7.82156 13.9333 6.97106 13.2667 6.27075C12.5833 5.55188 11.5167 5.0625 10 5.0625C8.48333 5.0625 7.41667 5.55019 6.73333 6.27075C6.06667 6.97106 5.83333 7.82156 5.83333 8.4375C5.83333 8.66128 5.92113 8.87589 6.07741 9.03412C6.23369 9.19236 6.44565 9.28125 6.66667 9.28125C6.88768 9.28125 7.09964 9.19236 7.25592 9.03412C7.4122 8.87589 7.5 8.66128 7.5 8.4375C7.5 8.20969 7.6 7.79456 7.93333 7.44019ZM10 18.5625C10.3315 18.5625 10.6495 18.4292 10.8839 18.1918C11.1183 17.9545 11.25 17.6325 11.25 17.2969C11.25 16.9612 11.1183 16.6393 10.8839 16.4019C10.6495 16.1646 10.3315 16.0312 10 16.0312C9.66848 16.0312 9.35054 16.1646 9.11612 16.4019C8.8817 16.6393 8.75 16.9612 8.75 17.2969C8.75 17.6325 8.8817 17.9545 9.11612 18.1918C9.35054 18.4292 9.66848 18.5625 10 18.5625Z" fill="#0180FE"/>
</svg>
