<svg width="30" height="30" viewBox="0 0 30 30" fill="none" xmlns="http://www.w3.org/2000/svg">
<path d="M12.2804 21.1325L11.3498 24.8552L10.1088 26.0961H20.0361L18.7952 24.8552L17.8645 21.1325H12.2804ZM3.9043 16.1689H26.2407H3.9043ZM6.38612 21.1325H23.7588C24.4171 21.1325 25.0483 20.871 25.5138 20.4056C25.9792 19.9402 26.2407 19.3089 26.2407 18.6507V6.24158C26.2407 5.58336 25.9792 4.9521 25.5138 4.48667C25.0483 4.02124 24.4171 3.75977 23.7588 3.75977H6.38612C5.7279 3.75977 5.09664 4.02124 4.6312 4.48667C4.16577 4.9521 3.9043 5.58336 3.9043 6.24158V18.6507C3.9043 19.3089 4.16577 19.9402 4.6312 20.4056C5.09664 20.871 5.7279 21.1325 6.38612 21.1325Z" stroke="#00BAA3" stroke-width="2" stroke-linecap="round" stroke-linejoin="round"/>
</svg>
