<svg width="12" height="11" viewBox="0 0 12 11" fill="none" xmlns="http://www.w3.org/2000/svg">
<path d="M2.47552 3.47425H0.202129V10.1457H2.47552V3.47425Z" fill="#131F35"/>
<path d="M2.09332 0.360815C1.87665 0.229346 1.62202 0.159184 1.36156 0.15918C1.18776 0.159177 1.01568 0.190422 0.855208 0.251119C0.694737 0.311816 0.549041 0.400766 0.426501 0.512854C0.303961 0.624943 0.206995 0.757957 0.141177 0.904249C0.0753604 1.05054 0.0419917 1.20722 0.0429905 1.36528C0.0444877 1.60217 0.123091 1.83334 0.268884 2.02964C0.414677 2.22595 0.621129 2.37858 0.862194 2.46829C1.10326 2.558 1.36814 2.58076 1.62341 2.53372C1.87869 2.48667 2.11293 2.37192 2.29657 2.20393C2.48022 2.03595 2.60505 1.82226 2.65532 1.58982C2.70559 1.35739 2.67903 1.11662 2.57902 0.897896C2.479 0.67917 2.30999 0.492284 2.09332 0.360815Z" fill="#131F35"/>
<path d="M6.12475 3.47391H3.93472L3.92714 10.1592H6.20053V6.8579C6.20053 5.9895 6.3824 5.14867 7.56457 5.14867C8.74673 5.14867 8.74674 6.14802 8.74674 6.91992V10.1454H11.0201V6.48573C11.0201 4.68691 10.5579 3.3085 8.28448 3.3085C7.85119 3.29308 7.42142 3.38494 7.04105 3.5743C6.66068 3.76366 6.34398 4.0434 6.12475 4.38366V3.47391Z" fill="#131F35"/>
</svg>
