<svg width="20" height="20" viewBox="0 0 20 20" fill="none" xmlns="http://www.w3.org/2000/svg">
<path d="M2.43896 4.87754C2.43896 4.42848 2.803 4.06445 3.25205 4.06445H16.2614C16.7104 4.06445 17.0745 4.42848 17.0745 4.87754C17.0745 5.32659 16.7104 5.69062 16.2614 5.69062H3.25205C2.803 5.69062 2.43896 5.32659 2.43896 4.87754Z" fill="black"/>
<path d="M2.43896 14.6345C2.43896 14.1855 2.803 13.8215 3.25205 13.8215H16.2614C16.7104 13.8215 17.0745 14.1855 17.0745 14.6345C17.0745 15.0836 16.7104 15.4476 16.2614 15.4476H3.25205C2.803 15.4476 2.43896 15.0836 2.43896 14.6345Z" fill="black"/>
<path d="M2.43896 9.75604C2.43896 9.30699 2.803 8.94296 3.25205 8.94296H16.2614C16.7104 8.94296 17.0745 9.30699 17.0745 9.75604C17.0745 10.2051 16.7104 10.5691 16.2614 10.5691H8.34399L6.19099 12.7221L4.03799 10.5691H3.25205C2.803 10.5691 2.43896 10.2051 2.43896 9.75604Z" fill="black"/>
</svg>
