<svg width="263" height="287" viewBox="0 0 263 287" fill="none" xmlns="http://www.w3.org/2000/svg">
<g opacity="0.1">
<path d="M260.993 179.231C260.993 297.724 149.797 394.257 11.9966 394.257C-125.803 394.257 -237 297.724 -237 179.231C-237 60.7383 -125.803 -35.7954 11.9966 -35.7954C149.797 -35.7954 260.993 60.7383 260.993 179.231Z" fill="white" stroke="white" stroke-width="4"/>
<path d="M220.786 178.705C220.786 278.287 127.318 359.492 11.3879 359.492C-104.542 359.492 -198.01 278.287 -198.01 178.705C-198.01 79.1221 -104.542 -2.08203 11.3879 -2.08203C127.318 -2.08203 220.786 79.1221 220.786 178.705Z" fill="white" stroke="white" stroke-width="4"/>
<path d="M185.451 179.231C185.451 261.649 108.076 328.938 11.9969 328.938C-84.0819 328.938 -161.457 261.649 -161.457 179.231C-161.457 96.8125 -84.0819 29.5229 11.9969 29.5229C108.076 29.5229 185.451 96.8125 185.451 179.231Z" fill="white" stroke="white" stroke-width="4"/>
<path d="M151.334 179.231C151.334 245.358 89.2332 299.44 11.9961 299.44C-65.241 299.44 -127.342 245.358 -127.342 179.231C-127.342 113.105 -65.241 59.022 11.9961 59.022C89.2332 59.022 151.334 113.105 151.334 179.231Z" fill="white" stroke="white" stroke-width="4"/>
<path d="M115.999 179.231C115.999 228.484 69.718 268.888 11.9956 268.888C-45.7268 268.888 -92.0078 228.484 -92.0078 179.231C-92.0078 129.978 -45.7268 89.5742 11.9956 89.5742C69.718 89.5742 115.999 129.978 115.999 179.231Z" fill="white" stroke="white" stroke-width="4"/>
<path d="M89.6719 179.231C89.6719 215.912 55.1782 246.124 11.9961 246.124C-31.186 246.124 -65.6797 215.912 -65.6797 179.231C-65.6797 142.551 -31.186 112.339 11.9961 112.339C55.1782 112.339 89.6719 142.551 89.6719 179.231Z" fill="white" stroke="white" stroke-width="4"/>
<path d="M55.0312 179.231C55.0312 199.368 36.047 216.17 11.997 216.17C-12.053 216.17 -31.0371 199.368 -31.0371 179.231C-31.0371 159.093 -12.053 142.292 11.997 142.292C36.047 142.292 55.0312 159.093 55.0312 179.231Z" stroke="white" stroke-width="4"/>
</g>
</svg>
