<svg width="31" height="28" viewBox="0 0 31 28" fill="none" xmlns="http://www.w3.org/2000/svg">
<path d="M2.21429 9.79724V25.4728H28.7857V3.9189H24.3571V4.89862C24.3571 5.15846 24.2405 5.40766 24.0329 5.59139C23.8252 5.77513 23.5436 5.87835 23.25 5.87835C22.9564 5.87835 22.6748 5.77513 22.4671 5.59139C22.2595 5.40766 22.1429 5.15846 22.1429 4.89862V3.9189H8.85714V4.89862C8.85714 5.15846 8.7405 5.40766 8.53287 5.59139C8.32524 5.77513 8.04363 5.87835 7.75 5.87835C7.45637 5.87835 7.17476 5.77513 6.96713 5.59139C6.7595 5.40766 6.64286 5.15846 6.64286 4.89862V3.9189H2.21429V7.83779H28.7857V9.79724H2.21429ZM8.85714 1.95945H22.1429V0.979724C22.1429 0.719885 22.2595 0.470689 22.4671 0.286955C22.6748 0.103221 22.9564 0 23.25 0C23.5436 0 23.8252 0.103221 24.0329 0.286955C24.2405 0.470689 24.3571 0.719885 24.3571 0.979724V1.95945H29.8929C30.1865 1.95945 30.4681 2.06267 30.6757 2.2464C30.8834 2.43014 31 2.67933 31 2.93917V26.4526C31 26.7124 30.8834 26.9616 30.6757 27.1453C30.4681 27.3291 30.1865 27.4323 29.8929 27.4323H1.10714C0.81351 27.4323 0.531904 27.3291 0.324275 27.1453C0.116645 26.9616 0 26.7124 0 26.4526V2.93917C0 2.67933 0.116645 2.43014 0.324275 2.2464C0.531904 2.06267 0.81351 1.95945 1.10714 1.95945H6.64286V0.979724C6.64286 0.719885 6.7595 0.470689 6.96713 0.286955C7.17476 0.103221 7.45637 0 7.75 0C8.04363 0 8.32524 0.103221 8.53287 0.286955C8.7405 0.470689 8.85714 0.719885 8.85714 0.979724V1.95945ZM7.75 13.7161H9.96428C10.2579 13.7161 10.5395 13.8194 10.7472 14.0031C10.9548 14.1868 11.0714 14.436 11.0714 14.6959C11.0714 14.9557 10.9548 15.2049 10.7472 15.3886C10.5395 15.5724 10.2579 15.6756 9.96428 15.6756H7.75C7.45637 15.6756 7.17476 15.5724 6.96713 15.3886C6.7595 15.2049 6.64286 14.9557 6.64286 14.6959C6.64286 14.436 6.7595 14.1868 6.96713 14.0031C7.17476 13.8194 7.45637 13.7161 7.75 13.7161ZM7.75 19.5945H9.96428C10.2579 19.5945 10.5395 19.6977 10.7472 19.8814C10.9548 20.0652 11.0714 20.3144 11.0714 20.5742C11.0714 20.8341 10.9548 21.0832 10.7472 21.267C10.5395 21.4507 10.2579 21.5539 9.96428 21.5539H7.75C7.45637 21.5539 7.17476 21.4507 6.96713 21.267C6.7595 21.0832 6.64286 20.8341 6.64286 20.5742C6.64286 20.3144 6.7595 20.0652 6.96713 19.8814C7.17476 19.6977 7.45637 19.5945 7.75 19.5945ZM14.3929 13.7161H16.6071C16.9008 13.7161 17.1824 13.8194 17.39 14.0031C17.5976 14.1868 17.7143 14.436 17.7143 14.6959C17.7143 14.9557 17.5976 15.2049 17.39 15.3886C17.1824 15.5724 16.9008 15.6756 16.6071 15.6756H14.3929C14.0992 15.6756 13.8176 15.5724 13.61 15.3886C13.4024 15.2049 13.2857 14.9557 13.2857 14.6959C13.2857 14.436 13.4024 14.1868 13.61 14.0031C13.8176 13.8194 14.0992 13.7161 14.3929 13.7161ZM14.3929 19.5945H16.6071C16.9008 19.5945 17.1824 19.6977 17.39 19.8814C17.5976 20.0652 17.7143 20.3144 17.7143 20.5742C17.7143 20.8341 17.5976 21.0832 17.39 21.267C17.1824 21.4507 16.9008 21.5539 16.6071 21.5539H14.3929C14.0992 21.5539 13.8176 21.4507 13.61 21.267C13.4024 21.0832 13.2857 20.8341 13.2857 20.5742C13.2857 20.3144 13.4024 20.0652 13.61 19.8814C13.8176 19.6977 14.0992 19.5945 14.3929 19.5945ZM21.0357 13.7161H23.25C23.5436 13.7161 23.8252 13.8194 24.0329 14.0031C24.2405 14.1868 24.3571 14.436 24.3571 14.6959C24.3571 14.9557 24.2405 15.2049 24.0329 15.3886C23.8252 15.5724 23.5436 15.6756 23.25 15.6756H21.0357C20.7421 15.6756 20.4605 15.5724 20.2528 15.3886C20.0452 15.2049 19.9286 14.9557 19.9286 14.6959C19.9286 14.436 20.0452 14.1868 20.2528 14.0031C20.4605 13.8194 20.7421 13.7161 21.0357 13.7161ZM21.0357 19.5945H23.25C23.5436 19.5945 23.8252 19.6977 24.0329 19.8814C24.2405 20.0652 24.3571 20.3144 24.3571 20.5742C24.3571 20.8341 24.2405 21.0832 24.0329 21.267C23.8252 21.4507 23.5436 21.5539 23.25 21.5539H21.0357C20.7421 21.5539 20.4605 21.4507 20.2528 21.267C20.0452 21.0832 19.9286 20.8341 19.9286 20.5742C19.9286 20.3144 20.0452 20.0652 20.2528 19.8814C20.4605 19.6977 20.7421 19.5945 21.0357 19.5945Z" fill="#F87F2D"/>
</svg>
