<svg width="55" height="55" viewBox="0 0 55 55" fill="none" xmlns="http://www.w3.org/2000/svg">
<circle opacity="0.1" cx="27.5" cy="27.5" r="27.5" fill="#00BAA3"/>
<path d="M39.0185 15.7538L27.8057 11.9326C27.6704 11.8864 27.4889 11.8633 27.3074 11.8633C27.126 11.8633 26.9445 11.8864 26.8092 11.9326L15.5964 15.7538C15.3225 15.8462 15.0981 16.1629 15.0981 16.4533V32.3716C15.0981 32.662 15.2862 33.0448 15.5139 33.2263L26.8884 42.0896C27.0039 42.1787 27.1524 42.2248 27.3041 42.2248C27.4559 42.2248 27.6077 42.1787 27.7199 42.0896L39.0944 33.2263C39.3221 33.0481 39.5102 32.6653 39.5102 32.3716V16.4533C39.5168 16.1629 39.2924 15.8495 39.0185 15.7538ZM37.1409 31.738L27.3074 39.4002L17.474 31.738V17.6281L27.3074 14.2754L37.1409 17.6281V31.738ZM23.7503 25.1054C23.6513 24.9701 23.4929 24.8876 23.3213 24.8876H21.4998C21.2853 24.8876 21.1599 25.1318 21.2853 25.3067L25.4563 31.0484C25.5056 31.1159 25.5701 31.1708 25.6447 31.2087C25.7192 31.2465 25.8016 31.2662 25.8852 31.2662C25.9688 31.2662 26.0513 31.2465 26.1258 31.2087C26.2003 31.1708 26.2649 31.1159 26.3142 31.0484L33.3296 21.3898C33.455 21.2149 33.3296 20.9708 33.1151 20.9708H31.2936C31.1253 20.9708 30.9636 21.0533 30.8646 21.1885L25.8852 28.0456L23.7503 25.1054Z" fill="#00BAA3"/>
</svg>
