<svg width="34" height="34" viewBox="0 0 34 34" fill="none" xmlns="http://www.w3.org/2000/svg">
<path d="M12.7498 16.2917L15.5832 19.125L21.9582 12.75M28.3332 17C28.3332 23.9536 20.7484 29.0111 17.9887 30.6211C17.675 30.8041 17.5182 30.8956 17.2969 30.943C17.1251 30.9798 16.8745 30.9798 16.7028 30.943C16.4815 30.8956 16.3247 30.8041 16.011 30.6211C13.2513 29.0111 5.6665 23.9536 5.6665 17V10.225C5.6665 9.09231 5.6665 8.52599 5.85175 8.03918C6.01539 7.60914 6.28131 7.22541 6.62652 6.92119C7.01729 6.57681 7.54755 6.37796 8.60808 5.98026L16.204 3.13181C16.4985 3.02136 16.6457 2.96614 16.7972 2.94425C16.9316 2.92483 17.0681 2.92483 17.2024 2.94425C17.3539 2.96614 17.5012 3.02136 17.7957 3.13181L25.3916 5.98026C26.4521 6.37796 26.9824 6.57681 27.3732 6.92119C27.7184 7.22541 27.9843 7.60914 28.1479 8.03918C28.3332 8.52599 28.3332 9.09231 28.3332 10.225V17Z" stroke="#00BAA3" stroke-width="2.5" stroke-linecap="round" stroke-linejoin="round"/>
</svg>
