<svg width="21" height="21" viewBox="0 0 21 21" fill="none" xmlns="http://www.w3.org/2000/svg">
<path d="M7.875 10.0635L9.625 11.8135L13.5625 7.87605M17.5 10.501C17.5 14.7959 12.8153 17.9196 11.1107 18.9141C10.917 19.0271 10.8202 19.0836 10.6835 19.1129C10.5774 19.1356 10.4226 19.1356 10.3165 19.1129C10.1798 19.0836 10.083 19.0271 9.88926 18.9141C8.18472 17.9196 3.5 14.7959 3.5 10.501V6.31645C3.5 5.61688 3.5 5.26709 3.61442 4.96641C3.71549 4.70079 3.87973 4.46379 4.09295 4.27589C4.33431 4.06318 4.66182 3.94036 5.31685 3.69473L10.0084 1.93539C10.1903 1.86717 10.2813 1.83306 10.3749 1.81954C10.4579 1.80755 10.5421 1.80755 10.6251 1.81954C10.7187 1.83306 10.8097 1.86717 10.9916 1.93539L15.6831 3.69473C16.3382 3.94036 16.6657 4.06318 16.907 4.27589C17.1203 4.46379 17.2845 4.70079 17.3856 4.96641C17.5 5.26709 17.5 5.61687 17.5 6.31645V10.501Z" stroke="#00BAA3" stroke-width="2.1" stroke-linecap="round" stroke-linejoin="round"/>
</svg>
