<svg width="26" height="26" viewBox="0 0 26 26" fill="none" xmlns="http://www.w3.org/2000/svg">
<path d="M9.99002 12.498L11.997 14.5049L16.5126 9.98927M21.0282 12.9997C21.0282 17.9252 15.6557 21.5075 13.7008 22.648C13.4787 22.7776 13.3676 22.8424 13.2108 22.876C13.0892 22.9021 12.9117 22.9021 12.79 22.876C12.6333 22.8424 12.5222 22.7776 12.3 22.648C10.3452 21.5075 4.97266 17.9252 4.97266 12.9997V8.20069C4.97266 7.3984 4.97266 6.99725 5.10387 6.65243C5.21979 6.34781 5.40815 6.07601 5.65267 5.86052C5.92946 5.61658 6.30507 5.47573 7.05627 5.19403L12.4367 3.17637C12.6453 3.09814 12.7496 3.05902 12.8569 3.04352C12.9521 3.02976 13.0488 3.02976 13.1439 3.04352C13.2513 3.05902 13.3556 3.09814 13.5642 3.17637L18.9446 5.19403C19.6958 5.47573 20.0714 5.61658 20.3482 5.86052C20.5927 6.07601 20.7811 6.34781 20.897 6.65243C21.0282 6.99725 21.0282 7.3984 21.0282 8.20069V12.9997Z" stroke="#0180FE" stroke-width="2.5" stroke-linecap="round" stroke-linejoin="round"/>
</svg>
