<svg width="20" height="21" viewBox="0 0 20 21" fill="none" xmlns="http://www.w3.org/2000/svg">
<path d="M11.9049 5.36982L11.6489 5.62589H12.011H16.666C17.5023 5.62589 18.1827 6.30623 18.1827 7.14255V16.3092C18.1827 17.1455 17.5023 17.8259 16.666 17.8259H3.33268C2.49636 17.8259 1.81602 17.1455 1.81602 16.3092V7.14255C1.81602 6.30623 2.49636 5.62589 3.33268 5.62589H7.98768H8.34981L8.09375 5.36982L6.28898 3.56505L7.25518 2.59885L9.89328 5.23695L9.99935 5.34302L10.1054 5.23695L12.7435 2.59885L13.7097 3.56505L11.9049 5.36982ZM3.18268 16.3092V16.4592H3.33268H16.6677H16.8177L16.8177 16.3092L16.816 7.14252L16.816 6.99255H16.666H3.33268H3.18268V7.14255V16.3092Z" fill="black" stroke="#D5D5D5" stroke-width="0.3"/>
</svg>
