<svg width="12" height="10" viewBox="0 0 12 10" fill="none" xmlns="http://www.w3.org/2000/svg">
<path d="M11.0145 1.16339C10.6177 1.3486 10.1153 1.52244 9.66501 1.58023C10.1229 1.29413 10.8494 0.698232 11.0145 0.15918C10.5867 0.423969 9.813 0.706758 9.3083 0.809074C8.90526 0.359074 8.33039 0.15918 7.69344 0.15918C6.46992 0.15918 5.61661 1.25102 5.61661 2.5276V3.47497C3.81732 3.47497 2.06302 2.03165 0.971302 0.632864C0.773901 0.985419 0.670264 1.38743 0.67127 1.79671C0.67127 2.65834 1.42292 3.53276 2.01804 3.94865C1.65503 3.93681 0.967703 3.64502 0.668572 3.47497V3.50197C0.668572 4.62318 1.41573 5.38439 2.42827 5.5966C2.2434 5.65013 2.01804 5.84339 1.15078 5.84339C1.43237 6.75997 2.84796 7.24455 3.81732 7.26444C3.05892 7.88355 1.70676 8.21181 0.668572 8.21181C0.489093 8.21181 0.391931 8.22223 0.21875 8.20092C1.19846 8.8546 2.56682 9.15918 3.81732 9.15918C7.89136 9.15918 10.1148 5.88223 10.1148 2.82602C10.1148 2.7256 10.1117 2.38929 10.1067 2.29076C10.5422 1.96771 10.7185 1.6295 11.0145 1.16339Z" fill="#131F35"/>
</svg>
