<svg id="Layer_1" data-name="Layer 1" xmlns="http://www.w3.org/2000/svg" viewBox="0 0 142.95 142.87"><defs><style>.cls-1{fill:#fff;}</style></defs><title>cancel</title><path class="cls-1" d="M12.28,4.26c2.45.45,4.21,2,5.92,3.67Q46.43,36.25,74.72,64.51a13.35,13.35,0,0,1,1,1.31c.59-.56,1-.93,1.38-1.31L134,7.92c2.86-2.84,6.13-3.45,9.23-1.73a7,7,0,0,1,2.07,10.57c-.47.58-1,1.1-1.52,1.63Q115.56,46.49,87.3,74.58a7.92,7.92,0,0,1-1.4.93l0,.63a9.05,9.05,0,0,1,1.37,1q28.55,28.52,57.05,57c2.87,2.87,3.54,6,2,9.08a7.13,7.13,0,0,1-10.84,2.29,21.09,21.09,0,0,1-1.64-1.51q-28.36-28.36-56.74-56.76a16.76,16.76,0,0,1-1.26-1.66,16.51,16.51,0,0,1-1.22,1.65L17.11,144.42c-2.94,2.92-6.37,3.5-9.48,1.64a8.46,8.46,0,0,1-3.44-4.71v-2.8c.78-2.31,2.45-4,4.14-5.63Q36.41,105,64.46,77.12c.4-.39.88-.69,1.63-1.27a15.57,15.57,0,0,1-1.62-1.22q-28.53-28.51-57-57a16.42,16.42,0,0,1-1.58-1.76,7.25,7.25,0,0,1,.1-8.69,8.68,8.68,0,0,1,5-2.87Z" transform="translate(-4.19 -4.26)"/></svg>