<svg id="Layer_1" data-name="Layer 1" xmlns="http://www.w3.org/2000/svg" xmlns:xlink="http://www.w3.org/1999/xlink" viewBox="0 0 63.34 62.35"><defs><style>.cls-1{fill:#fff;}.cls-2{fill:url(#linear-gradient);}.cls-3{fill:#3d568d;}</style><linearGradient id="linear-gradient" x1="960.17" y1="219.38" x2="960.17" y2="281.02" gradientUnits="userSpaceOnUse"><stop offset="0" stop-color="#4d69a1"/><stop offset="1" stop-color="#3c5a98"/></linearGradient></defs><title>facebook</title><rect class="cls-1" x="0.36" y="0.36" width="62.63" height="61.63" rx="2.86"/><path class="cls-2" d="M991.48,277.84V221.92a2.84,2.84,0,0,0-2.85-2.85H931.71a2.85,2.85,0,0,0-2.85,2.84v55.94a2.86,2.86,0,0,0,2.85,2.85h31.61V256h-8.16v-8.53h8.16v-9.26a9.54,9.54,0,0,1,9.09-9.28h9.13v7.76h-4.21c-2.08,0-4.84,1.69-4.84,3.76v7h8.22V256h-8.22V280.7h16.14A2.85,2.85,0,0,0,991.48,277.84Z" transform="translate(-928.5 -218.71)"/><path class="cls-3" d="M988.63,281.06h-16.5V255.6h8.23v-7.81h-8.23v-7.38c0-2.22,2.86-4.12,5.2-4.12h3.86v-7h-8.78c-3.65,0-8.73,3.39-8.73,8.92v9.62h-8.16v7.81h8.16v25.46h-32a3.21,3.21,0,0,1-3.21-3.21V221.91a3.22,3.22,0,0,1,3.21-3.2h56.92a3.21,3.21,0,0,1,3.21,3.21v55.92A3.22,3.22,0,0,1,988.63,281.06Zm-15.79-.72h15.79a2.5,2.5,0,0,0,2.5-2.5V221.92a2.5,2.5,0,0,0-2.5-2.5H931.71a2.5,2.5,0,0,0-2.49,2.49v55.94a2.51,2.51,0,0,0,2.5,2.49H963v-24h-8.15v-9.24H963v-8.9a9.92,9.92,0,0,1,9.45-9.63h9.49V237h-4.57c-2,0-4.49,1.6-4.49,3.4v6.66h8.23v9.24h-8.23Z" transform="translate(-928.5 -218.71)"/></svg>