<svg id="Layer_1" data-name="Layer 1" xmlns="http://www.w3.org/2000/svg" viewBox="0 0 384 258.91"><defs><style>.cls-1{fill:#ddd;}</style></defs><title>mail</title><path class="cls-1" d="M1131.66,121.59c-1.75-.06-3.5,0-5.25,0H850.13c-19.86,0-39.73-.08-59.6,0-11.57.07-18.47,5.31-21.78,16.15v225q3.36,17.12,21.08,17.67c1.25,0,2.5,0,3.75,0h334.34c1.25,0,2.5,0,3.75,0q17.73-.57,21.08-17.67V139.25Q1149.39,122.14,1131.66,121.59ZM1044.81,262q28.43,35.07,56.82,70.18L1127.34,364h-333c.8-1.08,1.52-2.14,2.33-3.14q39.84-49.21,79.7-98.42c1.68-2.07,3.35-4.16,3.08-7a7,7,0,0,0-5-6.44,6.88,6.88,0,0,0-7.84,2c-2.84,3.32-5.56,6.74-8.31,10.14L786,350.59l-2.2,2.71V147.69c1.52.18,2.39,1.32,3.43,2.1q75.67,56.7,151.33,113.45c14.22,10.65,30.23,10.65,44.54-.08q75.39-56.51,150.75-113l3.87-2.85v206l-2.37-2.9q-39.61-48.92-79.2-97.86c-2.33-2.89-5-4.6-8.72-3.64a7,7,0,0,0-5.28,5.74C1041.5,257.62,1043,259.85,1044.81,262Zm78.36-122.41Q1048.3,195.82,973.39,252c-7.89,5.91-17.29,6-25,.25Q873.2,195.81,798,139.38c-.46-.35-.91-.71-2-1.58h328.6C1124.86,139,1123.74,139.2,1123.17,139.63Z" transform="translate(-768.75 -121.53)"/></svg>