<svg id="Layer_1" data-name="Layer 1" xmlns="http://www.w3.org/2000/svg" viewBox="0 0 138.01 96.62"><defs><style>.cls-1{fill:#fff;}</style></defs><title>menu</title><path class="cls-1" d="M144.2,74a21.18,21.18,0,0,0-1.8-3.24,6.68,6.68,0,0,0-5.52-2.33h-7.14q-57.74,0-115.48,0a11.33,11.33,0,0,0-3.44.44A6.77,6.77,0,0,0,6.23,76a6.85,6.85,0,0,0,5.88,6.12,17.75,17.75,0,0,0,2.42.12q60.49,0,121,0c4.29,0,7.31-1.39,8.67-5.61Z" transform="translate(-6.2 -27.06)"/><path class="cls-1" d="M144.2,32.48c-.16-.35-.33-.7-.49-1.06a6.71,6.71,0,0,0-6.24-4.35H48.14c-3.74,0-6.39,1.94-7.22,5.23a6.9,6.9,0,0,0,6.17,8.53c.58,0,1.17,0,1.75,0h86.91c4.93,0,6.59-1.11,8.45-5.66Z" transform="translate(-6.2 -27.06)"/><path class="cls-1" d="M144.2,115.5c-.87-2.79-2.48-4.85-5.49-5.5a6.61,6.61,0,0,0-1.33-.15q-31.11,0-62.22,0a6.88,6.88,0,0,0-1.5,13.59,11.93,11.93,0,0,0,2.54.17c19.71,0,39.41-.06,59.12.07,4.32,0,7.41-1.24,8.88-5.48Z" transform="translate(-6.2 -27.06)"/></svg>