<svg id="Layer_1" data-name="Layer 1" xmlns="http://www.w3.org/2000/svg" viewBox="0 0 367.98 384.98"><defs><style>.cls-1{fill:#ddd;}</style></defs><title>user-icon</title><path class="cls-1" d="M947.27,60.61C933.66,63.17,921,68,909.84,76.33c-20.31,15-32.12,35.05-35.19,60.1-2.85,23.24,3,44.32,17.15,62.83,15,19.53,34.84,30.75,59.38,33.72a86.4,86.4,0,0,0,85.26-43.38c14.69-26.4,15.76-53.71,2.67-80.74-13.43-27.74-36.22-43.73-66.76-48.5-1.2-.19-2.93.34-3.16-1.72h-18C950.71,60.94,948.67,60.35,947.27,60.61Zm13.73,14a72.05,72.05,0,1,1-72.12,71.79C889,106.89,921.53,74.52,961,74.57Z" transform="translate(-776.95 -58.64)"/><path class="cls-1" d="M948.86,59.42c-48.37,6.75-82.42,52.24-75,100.25A88.11,88.11,0,0,0,976.4,233.18c39.54-6.91,69.27-40,72.35-80.59,3-39.59-22.39-77.12-60.44-89.59-6.27-2-12.77-2.81-19.12-4.36.23,2.06,2,1.53,3.16,1.72,30.54,4.77,53.33,20.76,66.76,48.5,13.09,27,12,54.34-2.67,80.74A86.4,86.4,0,0,1,951.18,233c-24.54-3-44.43-14.19-59.38-33.72-14.18-18.51-20-39.59-17.15-62.83,3.07-25.05,14.88-45.08,35.19-60.1C921,68,933.66,63.17,947.27,60.61c1.4-.26,3.44.33,3.88-2C950.68,59.73,949.65,59.31,948.86,59.42Z" transform="translate(-776.95 -58.64)"/><path class="cls-1" d="M961,251.7a169.53,169.53,0,0,0-24.35,1.55q-72.8,10.35-119.17,67.38c-23.27,28.61-36.32,61.58-39.85,98.28-.53,5.48-.74,11-.72,16.52a7.92,7.92,0,0,0,7.67,8.16c4.28.18,7.65-2.86,8.26-7.55a35.41,35.41,0,0,0,.2-4.12,146.93,146.93,0,0,1,2.38-25c6.74-37.91,24-70.29,52.92-95.64,46.32-40.7,100.09-53.8,159.35-36.59,57.87,16.8,95.58,55.71,114.11,113a150.32,150.32,0,0,1,7,45.09c0,2.25,0,4.51,1.15,6.58a8,8,0,0,0,8.53,4.09c3.92-.84,6.48-4,6.46-8.53a187.28,187.28,0,0,0-3.69-36.2C1124,313.57,1048.28,251.77,961,251.7Z" transform="translate(-776.95 -58.64)"/></svg>