<svg width="24" height="24" viewBox="0 0 24 24" fill="none" xmlns="http://www.w3.org/2000/svg">
<path d="M24.0002 12.27C24.0002 11.48 23.9287 10.73 23.8061 10H12.2607V14.51H18.8712C18.5749 15.99 17.7065 17.24 16.4191 18.09V21.09H20.3629C22.672 19 24.0002 15.92 24.0002 12.27Z" fill="#4285F4"/>
<path d="M12.2609 23.999C15.5712 23.999 18.3401 22.919 20.3631 21.089L16.4193 18.0891C15.3158 18.8091 13.9161 19.2491 12.2609 19.2491C9.06293 19.2491 6.3554 17.1391 5.38477 14.2891H1.31836V17.3791C3.33113 21.299 7.46906 23.999 12.2609 23.999Z" fill="#34A853"/>
<path d="M5.38442 14.2911C5.12899 13.5711 4.99617 12.8011 4.99617 12.0011C4.99617 11.2011 5.13921 10.4311 5.38442 9.71109V6.62109H1.31801C0.480203 8.24109 0 10.0611 0 12.0011C0 13.9411 0.480203 15.7611 1.31801 17.3811L5.38442 14.2911Z" fill="#FBBC05"/>
<path d="M12.2609 4.74999C14.0693 4.74999 15.6836 5.35999 16.9608 6.54999L20.455 3.12999C18.3401 1.19 15.5712 0 12.2609 0C7.46906 0 3.33113 2.7 1.31836 6.61999L5.38477 9.70998C6.3554 6.85999 9.06293 4.74999 12.2609 4.74999Z" fill="#EA4335"/>
</svg>
