<svg width="24" height="24" viewBox="0 0 24 24" fill="none" xmlns="http://www.w3.org/2000/svg">
<path d="M18.6131 0H5.38691C2.4118 0 0 2.4118 0 5.38691V18.6131C0 21.5882 2.4118 24 5.38691 24H18.6131C21.5882 24 24 21.5882 24 18.6131V5.38691C24 2.4118 21.5882 0 18.6131 0Z" fill="#006699"/>
<path d="M8.53379 10.0976H6.08456V16.8462H8.53379V10.0976Z" fill="white"/>
<path d="M8.12203 6.94811C7.8886 6.81512 7.61428 6.74414 7.33367 6.74414C7.14643 6.74414 6.96103 6.77574 6.78815 6.83714C6.61527 6.89854 6.4583 6.98852 6.32628 7.10191C6.19426 7.21529 6.0898 7.34985 6.01889 7.49783C5.94798 7.64581 5.91203 7.80431 5.91311 7.9642C5.91472 8.20383 5.99941 8.43767 6.15648 8.63625C6.31354 8.83482 6.53596 8.98922 6.79568 9.07997C7.05539 9.17071 7.34075 9.19374 7.61577 9.14615C7.89079 9.09856 8.14315 8.98248 8.341 8.81255C8.53885 8.64262 8.67334 8.42646 8.72749 8.19134C8.78165 7.95621 8.75304 7.71266 8.64529 7.4914C8.53753 7.27015 8.35546 7.0811 8.12203 6.94811Z" fill="white"/>
<path d="M12.4653 10.0972H10.1058L10.0977 16.8598H12.5469V13.5204C12.5469 12.6419 12.7429 11.7914 14.0165 11.7914C15.2901 11.7914 15.2901 12.8023 15.2901 13.5831V16.8459H17.7393V13.1439C17.7393 11.3243 17.2413 9.9299 14.792 9.9299C14.3252 9.9143 13.8622 10.0072 13.4524 10.1988C13.0427 10.3903 12.7015 10.6733 12.4653 11.0175V10.0972Z" fill="white"/>
</svg>
